<?xml version="1.0" encoding="utf-8"?>
<!-- Generator: Adobe Illustrator 22.0.0, SVG Export Plug-In . SVG Version: 6.00 Build 0)  -->
<svg version="1.1" id="图层_1" xmlns="http://www.w3.org/2000/svg" xmlns:xlink="http://www.w3.org/1999/xlink" x="0px" y="0px"
	 viewBox="0 0 175.5 173.3" style="enable-background:new 0 0 175.5 173.3;" xml:space="preserve">
<style type="text/css">
	.st0{fill:url(#SVGID_1_);}
</style>
<g>
	<g>
		
			<linearGradient id="SVGID_1_" gradientUnits="userSpaceOnUse" x1="56.9294" y1="149.3206" x2="121.0922" y2="18.2072" gradientTransform="matrix(1 0 0 -1 0 176)">
			<stop  offset="0" style="stop-color:#5600DB"/>
			<stop  offset="1" style="stop-color:#21A9D5"/>
		</linearGradient>
		<path class="st0" d="M80.3,62.6C59.2,95,46.2,140,41.1,155.3C38.3,126.5,53.3,87.2,64.4,64c-5.1,0.2-32.1,2.1-47.1,17.5
			c0,0,8.1-24.8,54.7-32.3l0.2-0.3c36.5-53.3,63.9-21.5,63.9-21.5c-16.6-2.7-31.2,5.5-43.5,19.1c6-0.3,45-0.7,56.2,30.1
			C148.8,76.6,126.2,60.5,80.3,62.6z M106.7,99.7c-9.3,0-16.9,7.6-16.9,16.9c0,9.3,7.6,16.9,16.9,16.9c9.3,0,16.9-7.6,16.9-16.9l0,0
			C123.6,107.3,116,99.7,106.7,99.7z"/>
	</g>
</g>
</svg>
