<?xml version="1.0" encoding="utf-8"?>
<!-- Generator: Adobe Illustrator 22.0.0, SVG Export Plug-In . SVG Version: 6.00 Build 0)  -->
<svg version="1.1" id="图层_1" xmlns="http://www.w3.org/2000/svg" xmlns:xlink="http://www.w3.org/1999/xlink" x="0px" y="0px"
	 viewBox="0 0 500 500" style="enable-background:new 0 0 500 500;" xml:space="preserve">
<style type="text/css">
	.st0{fill:#108EE9;}
</style>
<g>
	<g>
		<path class="st0" d="M71.8,163L3.7,349.3h43l13.7-42.7h67.7l13.9,42.7h43.3L118.5,163H71.8z M69.1,275.9l21.3-65
			c1.7-5,2.8-10.3,3.2-15.7h1.1c0.6,6.7,1.5,12.1,2.9,16.2l21.2,64.6H69.1z M301.9,249.4v-0.5c10.3-2.9,18.9-8.1,25.7-15.7
			c6.8-7.6,10.2-16.5,10.2-26.6c0-13.6-5.5-24.3-16.5-32c-11-7.7-26.6-11.5-46.9-11.5h-66.1v186.2H278c20.8,0,37.3-5,49.3-15
			c12-10,18-23.4,18-40.3c0-12.1-4-22.2-12-30.2C325.4,255.8,314.9,251,301.9,249.4z M248.1,192.6h16.8c20.8,0,31.3,7.1,31.3,21.4
			c0,7.8-2.6,13.8-7.8,18.2c-5.2,4.3-12.3,6.5-21.4,6.5h-18.9V192.6z M295.1,312.7c-5.7,4.6-13.5,7-23.5,7h-23.6v-51.1h23.2
			c10.3,0,18.3,2.2,23.9,6.5c5.6,4.3,8.4,10.4,8.4,18.3C303.6,301.6,300.8,308.1,295.1,312.7z M484.1,266.1
			c-6.9-8.8-19.7-17.2-38.2-25.1c-15.8-6.9-25.7-12.4-29.7-16.4c-4-4-6-8.5-6-13.3c0-6,2.9-10.8,8.8-14.4c5.9-3.6,13.7-5.4,23.4-5.4
			c16.7,0,31.4,4.2,43.9,12.7V167c-12.3-4.7-27.6-7.1-45.8-7.1c-21.7,0-39.2,4.8-52.4,14.4c-13.2,9.6-19.8,23-19.8,40.3
			c0,23.6,14.5,41.5,43.6,53.9c18.5,7.7,29.9,13.8,34.3,18.3c4.3,4.5,6.5,9.3,6.5,14.3c0,5.9-2.7,10.6-8.2,14.4
			c-5.5,3.7-13.6,5.6-24.4,5.6c-19.1,0-36.1-6.2-51.1-18.6v39.8c13.6,6.9,31.1,10.3,52.4,10.3c23.3,0,41.3-4.7,54-14.1
			c12.7-9.4,19-23,19-40.9C494.5,285.4,491,274.9,484.1,266.1z"/>
	</g>
</g>
</svg>
