<?xml version="1.0" encoding="utf-8"?>
<!-- Generator: Adobe Illustrator 22.0.0, SVG Export Plug-In . SVG Version: 6.00 Build 0)  -->
<svg version="1.1" id="图层_1" xmlns="http://www.w3.org/2000/svg" xmlns:xlink="http://www.w3.org/1999/xlink" x="0px" y="0px"
	 viewBox="0 0 500 500" style="enable-background:new 0 0 500 500;" xml:space="preserve">
<style type="text/css">
	.st0{fill:#29AB91;}
</style>
<g>
	<g>
		<path class="st0" d="M488,203.6l-64.9-65.5l-9.7,7.1c-7.7,5.6-16.7,8.5-26.2,8.5c-24.7,0-44.8-20.2-44.8-45.1
			c0-9.6,3-18.8,8.6-26.6l7-9.7L298.4,12c-6.6-6.6-17.4-6.7-24-0.1L12,272.2c-3.3,3.2-5,7.5-5,12.1c0,4.6,1.8,8.9,4.9,12.1
			l61.5,62.1l9.6-6.5c7.4-5,16.1-7.7,25.1-7.7c24.7,0,44.8,20.2,44.8,45.1c0,9.1-2.7,17.9-7.8,25.3l-6.5,9.6l63,63.6
			c3.3,3.3,7.7,5,12.1,5c4.3,0,8.7-1.7,11.9-4.9l262.4-260.3c3.3-3.2,5-7.5,5-12.1C493.1,211.2,491.3,206.9,488,203.6z M213.7,460.4
			l-39.6-40c4.4-9.6,6.8-20.1,6.8-30.9c0-40.5-32.6-73.3-72.8-73.3c-10.6,0-21,2.3-30.5,6.8l-38.1-38.5L286.2,39.8L322,75.9
			c-5,10.1-7.6,21.2-7.6,32.7c0,40.5,32.7,73.3,72.8,73.3c11.3,0,22.3-2.6,32.3-7.6l40.9,41.4L213.7,460.4z M279.1,169.4
			c-6.5-6.9-17.5-7.4-24.5-0.7l-103.5,98c-6.9,6.6-7.3,17.6-0.7,24.7c6.5,6.9,17.5,7.4,24.5,0.7L278.3,194
			C285.3,187.5,285.6,176.4,279.1,169.4z M310.7,220.5l-103.6,98c-6.9,6.6-7.3,17.6-0.7,24.7c6.5,6.9,17.5,7.4,24.5,0.7l103.5-98
			c6.9-6.6,7.3-17.6,0.8-24.7C328.6,214.3,317.6,214,310.7,220.5z"/>
	</g>
</g>
</svg>
