<?xml version="1.0" encoding="utf-8"?>
<!-- Generator: Adobe Illustrator 22.0.0, SVG Export Plug-In . SVG Version: 6.00 Build 0)  -->
<svg version="1.1" id="图层_1" xmlns="http://www.w3.org/2000/svg" xmlns:xlink="http://www.w3.org/1999/xlink" x="0px" y="0px"
	 viewBox="0 0 500 500" style="enable-background:new 0 0 500 500;" xml:space="preserve">
<style type="text/css">
	.st0{fill:#1B0D56;}
</style>
<g>
	<g>
		<path class="st0" d="M345,94.5H63.5C29.3,94.5,1,122.8,1,156.9v280.3c0,34.9,28.3,62.4,62.5,62.4H345c34.2,0,62.5-28.3,62.5-62.4
			V156.9C407.5,122.8,379.2,94.5,345,94.5z M361.5,423.9h-0.8c0,15.9-12.9,28.8-28.8,28.8H76.3c-15.9,0-28.1-12.9-28.1-28.8V168.7
			c0-15.9,12.9-28.8,28.1-28.8h256.4c15.9,0,28.8,12.9,28.8,28.8V423.9z M95.1,326.2H250v-44.6H95.1V326.2z M95.1,232.3h218.3v-44.6
			H95.1V232.3z M438.3,0.5H157.6c-34.2,0-62.5,28.3-62.5,62.4h45.4c0-17.5,14.2-17,30.8-17h266.1c17.5,0,17-0.5,17,17v280.3
			c0,17.5,0.5,17-17,17v46.2c34.2,0,62.5-28.3,62.5-62.4V62.9C500.8,28.8,472.5,0.5,438.3,0.5z"/>
	</g>
</g>
</svg>
