<?xml version="1.0" encoding="utf-8"?>
<!-- Generator: Adobe Illustrator 22.0.0, SVG Export Plug-In . SVG Version: 6.00 Build 0)  -->
<svg version="1.1" id="图层_1" xmlns="http://www.w3.org/2000/svg" xmlns:xlink="http://www.w3.org/1999/xlink" x="0px" y="0px"
	 viewBox="0 0 500 500" style="enable-background:new 0 0 500 500;" xml:space="preserve">
<style type="text/css">
	.st0{fill-rule:evenodd;clip-rule:evenodd;fill:#1D8FE1;}
</style>
<g>
	<g>
		<path class="st0" d="M453.7,293.8c4.1-3.1,5.8-8.7,10.3-11.7c1.5-11.2,1.5-16.6,0-27.8c-7.3,5-13.1,12.9-20.6,17.6
			c-21.1,13.2-67.3,30.1-98.6,30.8v30.8c21.7-9.7,50.5-10,72.1-19C429.5,309,443.3,301.7,453.7,293.8z M269.7,422l0.1-25.5
			c35.1,0.2,52.7-13,52.9-39.5c-0.5-14.9-8.3-26.2-23.5-34.2c11.4-6.1,17.1-15.4,17.2-28c-1.5-23.4-18.7-36.1-51.6-38l-1.5,0l0.1-22
			l-18.5-0.2l-0.1,21.9l-18.5-0.3l0.1-26l-18.5-0.2l-0.1,25.9l-1.5,0l-7-0.1l0,0l-24.5-0.3l-0.1,22l24.4,0.3l-0.8,95.6l-24-0.3
			l-0.1,22l42.4,0.6l-0.1,29.5l18.5,0.2l0.1-29.5l16,0.3l-0.1,25.6L269.7,422z M229,278.4l31.5,0.5c16.4,0.8,25.2,6.1,26.2,16
			c-0.7,11.7-9.5,17.6-26.5,17.7l-31.5-0.5L229,278.4z M228.2,374.8l0.3-39.8l33.1,0.6c20.4,0.8,30.8,7.7,31.3,20.8
			c-0.7,12.6-10.3,19-29,19.1L228.2,374.8z M91.8,157.6c86.2,33,235,35.6,316.3-4.4c22.9-11.3,44.8-19.9,55.9-42.5
			c16.1-32.7-18-52.8-33.8-64.5C387.9,15,299.8,5.7,228.6,3.7c-12,1.9-31.5,1.9-53,4.4C118.7,21.9,85.4,26.9,44.7,56.5
			C32,65.7,14.3,87.5,25.6,110.7C37.7,135.4,64.8,147.2,91.8,157.6z M72.4,65.3c35.1-21.6,63.8-25.3,112.9-35.3
			c18.5-1.8,35.3-1.8,45.7-3.2c61.3,1.4,137.3,8.2,173.7,31c13.6,8.5,43.1,23.2,29.2,47.1c-9.6,16.5-28.4,22.8-48.2,31
			c-70.1,29.2-198.4,27.3-272.7,3.2c-23.3-7.5-46.7-16.2-57.1-34.2C46.1,88,61.4,72,72.4,65.3z M27.1,331.9
			c-5.4,6.6-3.6,15.3-2.9,24.9c4.8,4.8,7.8,12.1,13.2,16.1c22.5,16.6,70.7,35.9,107.4,36.6v-29.3C105.7,378.8,43.4,355.9,27.1,331.9
			z M441.9,350.9c-17.8,11.3-69.9,29.1-97.1,29.3v29.3c37.2-1.1,110.2-26,119.2-52.7c5.2-7.3,1.3-16.6,0-24.9
			C456.2,337.2,450,345.9,441.9,350.9z M346.3,223.5c-1.3,1.6,0.1,0.1-1.5,1.5v29.3c38.7-8.3,108-21.4,119.2-54.2
			c4.6-6.2,3-19.7-1.5-24.9C447.9,197.8,383.7,223.7,346.3,223.5z M464,409.5c-7.5,3.4-12.5,11.7-19.1,16.1
			c-11.5,7.7-28,14.2-41.2,19c-47.6,17.4-164.6,30.1-226.6,16.1c-19.1-4.3-33.9-0.8-51.5-5.9c-25-7.1-52.9-12.7-73.6-24.9
			c-9.2-5.4-16.8-16.3-26.5-20.5c-1.8,7.5-4.7,16.9,0,23.4c6,25.5,59.1,38.9,83.9,48.3c5.9,0.5,11.8,1,17.7,1.5
			c56.1,17.7,179.2,17.5,235.4,0c5.9-0.5,11.8-1,17.7-1.5c13.4-5,30.6-8,44.1-14.6c15.6-7.7,26.2-20.5,39.7-29.3
			c1.3-8.5,5.1-17.8,0-24.9V409.5z M103.6,324.6c12,3.7,30.8,1.6,39.7,8.8h1.5v-30.8c-38.7-2-101.3-24.3-117.7-48.3
			c-4.3,5.1-6,17.7-1.5,23.4C29.9,300.5,80.8,317.6,103.6,324.6z M27.1,175.1c-5.4,6.6-3.6,15.3-2.9,24.9
			c5.3,5.3,8.7,13.1,14.7,17.6c12.7,9.4,31.4,17.9,47.1,23.4c13.1,4.6,27.3,7.1,39.7,10.3c7.1,1.8,12.7-0.2,17.7,2.9h1.5v-30.8
			C105,222.7,43.4,199.3,27.1,175.1z"/>
	</g>
</g>
</svg>
