<?xml version="1.0" encoding="utf-8"?>
<!-- Generator: Adobe Illustrator 22.0.0, SVG Export Plug-In . SVG Version: 6.00 Build 0)  -->
<svg version="1.1" id="图层_1" xmlns="http://www.w3.org/2000/svg" xmlns:xlink="http://www.w3.org/1999/xlink" x="0px" y="0px"
	 viewBox="0 0 500 500" style="enable-background:new 0 0 500 500;" xml:space="preserve">
<style type="text/css">
	.st0{fill:#FFFFFF;}
</style>
<g>
	<g>
		<path class="st0" d="M140.8,180.9c-3.1-3.1-6.2-3.1-12.5-3.1c-3.1,0-6.2,3.1-9.4,6.2c-3.1,6.2-3.1,15.6,6.2,21.8l109.2,62.4v121.6
			c0,3.1,0,9.4,3.1,12.5c3.1,3.1,6.2,3.1,12.5,3.1c9.4,0,15.6-6.2,15.6-15.6V268.2l109.2-62.4c6.2-3.1,9.4-12.5,6.2-21.8
			c-3.1-3.1-6.2-6.2-9.4-6.2c-3.1,0-9.4,0-12.5,3.1L250,243.3L140.8,180.9z M250,0L31.7,124.8v249.5L250,499l218.3-124.8V124.8
			L250,0z M437.1,358.7L250,467.8L62.9,358.7V140.3L250,31.2l187.1,109.2V358.7z"/>
	</g>
</g>
</svg>
