<?xml version="1.0" encoding="utf-8"?>
<!-- Generator: Adobe Illustrator 22.0.0, SVG Export Plug-In . SVG Version: 6.00 Build 0)  -->
<svg version="1.1" id="图层_1" xmlns="http://www.w3.org/2000/svg" xmlns:xlink="http://www.w3.org/1999/xlink" x="0px" y="0px"
	 viewBox="0 0 500 500" style="enable-background:new 0 0 500 500;" xml:space="preserve">
<style type="text/css">
	.st0{fill:#29AB91;}
</style>
<g>
	<g>
		<path class="st0" d="M250,2C113,2,2,113,2,250c0,137,111,248,248,248c137,0,248-111,248-248C498,113,387,2,250,2z M250,463.3
			c-117.8,0-213.3-95.5-213.3-213.3S132.2,36.7,250,36.7c117.8,0,213.3,95.5,213.3,213.3S367.8,463.3,250,463.3z M128.5,273.9
			c-1.8,6,0.3,12.6,5.1,16.3l49.6,37.6l17-23.4l-14.9-11.3h180v-29.2H142.1C135.9,263.9,130.3,267.8,128.5,273.9z M373.8,202.4
			l-49.6-37.6l-17,23.4l14.9,11.3h-180v29.2h223.2c6.2,0,11.8-3.9,13.6-10C380.7,212.7,378.7,206.1,373.8,202.4z"/>
	</g>
</g>
</svg>
