<?xml version="1.0" encoding="utf-8"?>
<!-- Generator: Adobe Illustrator 22.0.0, SVG Export Plug-In . SVG Version: 6.00 Build 0)  -->
<svg version="1.1" id="图层_1" xmlns="http://www.w3.org/2000/svg" xmlns:xlink="http://www.w3.org/1999/xlink" x="0px" y="0px"
	 viewBox="0 0 500 500" style="enable-background:new 0 0 500 500;" xml:space="preserve">
<style type="text/css">
	.st0{fill-rule:evenodd;clip-rule:evenodd;fill:#29AB91;}
</style>
<g>
	<g>
		<path class="st0" d="M393.8,388.9c-4.8-0.7-9.6,0.8-13.1,4.1c-48.7,44.7-117,61.4-180.8,44.1C96.7,409.4,35.3,303,62.9,199.9
			c2.3-8.6-2.8-17.5-11.4-19.8s-17.5,2.8-19.8,11.4C16.1,249.4,24.2,311.1,54.3,363c29.9,52,79.3,89.9,137.2,105.3
			c37.3,10,76.6,10.3,113.8,0.9c9.8-2.5,19.4-5.6,28.8-9.4L323.4,475c-4.8,7.3-2.9,17,4.3,22c7.1,5,16.9,3.4,22.2-3.5l55.6-79.3
			c3.3-4.7,3.8-10.8,1.4-16C404.5,393,399.5,389.5,393.8,388.9z M445.7,137c-29.9-52-79.3-89.9-137.2-105.3
			c-37.3-10-76.6-10.3-113.8-0.9c-9.8,2.5-19.4,5.6-28.8,9.4L176.6,25c4.8-7.3,2.9-17-4.3-22c-7.1-5-16.9-3.4-22.2,3.5L94.6,85.8
			c-3.3,4.7-3.8,10.8-1.5,16c2.4,5.2,7.3,8.8,13,9.3c4.6,0.6,9.4-0.7,13.1-4.1c48.7-44.7,117-61.4,180.8-44.1
			c103.2,27.6,164.6,134,136.9,237.2c-2.3,8.6,2.8,17.5,11.4,19.8c8.6,2.3,17.5-2.8,19.8-11.4C483.9,250.6,475.8,188.9,445.7,137z
			 M235.4,304.6c30.1,8.1,61.1-9.8,69.2-39.9c8.1-30.1-9.8-61.1-39.9-69.2c-30.1-8.1-61.1,9.8-69.2,39.9
			C187.4,265.5,205.2,296.5,235.4,304.6z"/>
	</g>
</g>
</svg>
