<?xml version="1.0" encoding="utf-8"?>
<!-- Generator: Adobe Illustrator 22.0.0, SVG Export Plug-In . SVG Version: 6.00 Build 0)  -->
<svg version="1.1" id="图层_1" xmlns="http://www.w3.org/2000/svg" xmlns:xlink="http://www.w3.org/1999/xlink" x="0px" y="0px"
	 viewBox="0 0 500 500" style="enable-background:new 0 0 500 500;" xml:space="preserve">
<style type="text/css">
	.st0{fill:#F15A4A;}
</style>
<g>
	<g>
		<path class="st0" d="M493.9,89.8c-0.1-33.1-17.2-49.7-50.3-49.8c-63.3,0-126.6,0-189.9,0c-63.8,0-127.5,0-191.3,0
			c-33.7,0-50.1,16-50.1,49.5c-0.1,104.6-0.1,209.2,0,313.9C12.3,437,28.6,453,62.4,453c127.1,0,254.2,0,381.2,0
			c33.9,0,50.2-15.7,50.3-49.4C494.1,299,494,194.4,493.9,89.8z M459.5,400.1c0,16.8-1.4,18.4-17.7,18.4
			c-126.1,0.1-252.2,0-378.2,0.1c-9.4,0-17.2-0.3-17.1-13.4c0.4-64.7,0.2-129.3,0.2-194c0-2.2,0.8-4.3,1.3-6.7l-1.4-37.6
			c0-27.7,0-54.2,0-80.7c0-8.2,4.3-11.5,12-11.7c2.8-0.1,5.5-0.1,8.3-0.1c124.2,0,248.5,0,372.7,0c19.5,0,20,0.5,20,20
			c0,22.9-0.1,45.8-0.2,68.8c0,0.9-0.5,1.7-1,3.7l1.2,37.6v14C459.5,279.1,459.5,339.6,459.5,400.1z M134.7,271.6l68.5-68.5
			l41.1,41.1c3.6,3.7,8.6,5.7,13.7,5.7c5.1,0,10.1-2.1,13.7-5.7l123.2-123.4c7.1-7.6,6.9-19.5-0.5-26.9c-7.4-7.4-19.3-7.6-26.9-0.5
			L257.9,203.1L216.8,162c-3.8-3.8-8.7-5.7-13.7-5.7v-0.1c-5.1,0-10.1,2-13.7,5.7l-82.1,82.3c-7.1,7.6-6.9,19.5,0.5,26.9
			C115.2,278.5,127,278.7,134.7,271.6z M275.9,274.3V313c0,10.7,8.7,19.4,19.4,19.4c10.7,0,19.4-8.7,19.4-19.4v-38.8
			c0-10.7-8.7-19.4-19.4-19.4C284.5,254.9,275.9,263.6,275.9,274.3z M353.3,196.7V313c0,10.7,8.7,19.4,19.4,19.4
			c10.7,0,19.4-8.7,19.4-19.4V196.7c0-10.7-8.7-19.4-19.4-19.4C362,177.3,353.3,186,353.3,196.7z M198.4,274.3V313
			c0,10.7,8.7,19.4,19.4,19.4s19.4-8.7,19.4-19.4v-38.8c0-10.7-8.7-19.4-19.4-19.4S198.4,263.6,198.4,274.3z M392,359.2H121
			c-10.7,0-19.4,8.7-19.4,19.4c0,10.7,8.7,19.4,19.4,19.4h271c10.7,0,19.4-8.7,19.4-19.4C411.4,367.8,402.7,359.2,392,359.2z
			 M121,313c0,10.7,8.7,19.4,19.4,19.4c10.7,0,19.4-8.7,19.4-19.4c0-10.7-8.7-19.4-19.4-19.4C129.7,293.7,121,302.3,121,313z"/>
	</g>
</g>
</svg>
