<?xml version="1.0" encoding="utf-8"?>
<!-- Generator: Adobe Illustrator 22.0.0, SVG Export Plug-In . SVG Version: 6.00 Build 0)  -->
<svg version="1.1" id="图层_1" xmlns="http://www.w3.org/2000/svg" xmlns:xlink="http://www.w3.org/1999/xlink" x="0px" y="0px"
	 viewBox="0 0 500 500" style="enable-background:new 0 0 500 500;" xml:space="preserve">
<style type="text/css">
	.st0{fill:#666666;}
</style>
<g>
	<g>
		<path class="st0" d="M480.7,153.1C468.2,123,450.6,95.4,428,72.8s-50.2-40.2-80.3-52.7S284.9,0,249.8,0
			c-32.6,0-67.8,7.5-97.9,20.1S94.2,50.2,71.6,72.8C49,95.4,31.4,123,18.9,153.1S-1.2,215.9-1.2,251s7.5,67.8,20.1,97.9
			C31.4,379,49,406.6,71.6,429.2c22.6,22.6,50.2,40.2,80.3,52.7c30.1,12.5,62.8,20.1,97.9,20.1c32.6,0,67.8-7.5,97.9-20.1
			c30.1-12.6,57.7-30.1,80.3-52.7s40.2-50.2,52.7-80.3c12.5-30.1,20.1-62.8,20.1-97.9S493.3,183.2,480.7,153.1z M247.3,20.1
			c12.5,0,27.6,2.5,40.2,2.5c-30.1,5-70.3,27.6-113,90.4l0,0C86.7,128,44,160.6,26.4,185.7C54,90.4,144.4,20.1,247.3,20.1z
			 M16.4,251c0-17.6,2.5-35.1,5-50.2c45.2-37.7,115.5-42.7,128-42.7c-30.1,65.3-72.8,170.7-70.3,253.5
			C41.5,371.5,16.4,313.8,16.4,251z M247.3,481.9c-62.8,0-120.5-25.1-160.6-65.3c17.6-52.7,55.2-173.2,113-261
			c135.5-7.5,203.3,40.2,203.3,40.2c-32.6-90.4-148.1-90.4-165.7-87.8c35.1-40.2,77.8-62.8,128-55.2c70.3,40.2,118,115.5,118,200.8
			C480.7,379,375.3,481.9,247.3,481.9z M277.4,263.5c-27.6,0-50.2,22.6-50.2,50.2s22.6,50.2,50.2,50.2c27.6,0,50.2-22.6,50.2-50.2
			S305,263.5,277.4,263.5z"/>
	</g>
</g>
</svg>
