<?xml version="1.0" encoding="utf-8"?>
<!-- Generator: Adobe Illustrator 22.0.0, SVG Export Plug-In . SVG Version: 6.00 Build 0)  -->
<svg version="1.1" id="图层_1" xmlns="http://www.w3.org/2000/svg" xmlns:xlink="http://www.w3.org/1999/xlink" x="0px" y="0px"
	 viewBox="0 0 500 500" style="enable-background:new 0 0 500 500;" xml:space="preserve">
<style type="text/css">
	.st0{fill:#FFFFFF;}
</style>
<path class="st0" d="M166.2,390c0,3-3,3-6.1,3c-3,0-6.1,0-6.1-3c0-3,3-3,6.1-3C166.2,386.9,166.2,386.9,166.2,390L166.2,390z
	 M135.7,383.9c0,3,0,3,3,6.1c3,0,6.1,0,6.1-3c0-3,0-3-3-6.1C141.8,380.8,138.7,383.9,135.7,383.9L135.7,383.9z M181.4,383.9
	c-3,0-6.1,3-3,6.1c0,3,3,3,6.1,3c3,0,6.1-3,3-3C187.5,383.9,184.5,383.9,181.4,383.9L181.4,383.9z M245.5,21
	C108.3,21,4.6,121.6,4.6,252.8c0,103.7,70.1,195.2,167.7,225.7c12.2,3,18.3-6.1,18.3-12.2c0-6.1,0-39.6,0-57.9
	c0,0-70.1,15.2-82.3-27.4c0,0-12.2-27.4-27.4-33.5c0,0-21.3-15.2,3-15.2c0,0,24.4,3,36.6,24.4c21.3,36.6,57.9,27.4,73.2,18.3
	c3-15.2,9.1-24.4,15.2-30.5C154,338.1,99.1,332,99.1,240.6c0-27.4,6.1-39.6,24.4-54.9c-3-6.1-12.2-30.5,3-64
	c21.3-6.1,67.1,24.4,67.1,24.4c18.3-6.1,39.6-9.1,61-9.1s42.7,3,61,9.1c0,0,48.8-30.5,67.1-24.4c12.2,33.5,6.1,57.9,3,64
	c15.2,15.2,24.4,30.5,24.4,54.9c0,91.5-57.9,97.6-112.8,103.7c9.1,6.1,15.2,21.3,15.2,42.7c0,30.5,0,70.1,0,79.3
	c0,6.1,3,12.2,18.3,12.2c97.6-30.5,164.7-122,164.7-225.7C492.5,121.6,382.7,21,245.5,21L245.5,21z M99.1,347.3c0,0,0,3,0,6.1
	c3,0,3,3,6.1,0c0,0,0-3,0-6.1C105.2,347.3,102.2,347.3,99.1,347.3L99.1,347.3z M90,338.1c0,0,0,3,3,3s3,0,3,0s0-3-3-3
	C93,338.1,90,338.1,90,338.1L90,338.1z M120.4,374.7c-3,0,0,3,0,6.1c3,3,6.1,3,6.1,0c0,0,0-3,0-6.1
	C126.5,371.7,123.5,371.7,120.4,374.7L120.4,374.7z M111.3,359.5c-3,0-3,3,0,6.1c3,3,3,3,6.1,3c3,0,3-3,0-6.1
	C114.4,359.5,111.3,359.5,111.3,359.5L111.3,359.5z"/>
</svg>
