<?xml version="1.0" encoding="utf-8"?>
<!-- Generator: Adobe Illustrator 22.0.0, SVG Export Plug-In . SVG Version: 6.00 Build 0)  -->
<svg version="1.1" id="图层_1" xmlns="http://www.w3.org/2000/svg" xmlns:xlink="http://www.w3.org/1999/xlink" x="0px" y="0px"
	 viewBox="0 0 500 500" style="enable-background:new 0 0 500 500;" xml:space="preserve">
<style type="text/css">
	.st0{fill:#1B0D56;}
</style>
<g>
	<g>
		<path class="st0" d="M250,0C112.8,0,0.5,112.3,0.5,249.5S112.8,499,250,499s249.5-112.3,249.5-249.5S387.2,0,250,0z M250,458.5
			c-115.4,0-209-93.6-209-209s93.6-209,209-209s209,93.6,209,209C459,364.9,365.4,458.5,250,458.5z M250,99.8
			c-59.3,0-106,46.8-106,106c0,9.4,0,15.6,3.1,25l0,0c3.1,9.4,12.5,18.7,21.8,18.7c12.5,0,25-9.4,25-25c0-3.1,0-3.1,0-6.2l0,0
			c0-3.1,0-9.4,0-12.5c0-31.2,25-56.1,56.1-56.1s56.1,25,56.1,56.1S281.2,262,250,262c-12.5,0-25,9.4-25,25v62.4h46.8v-43.7
			c46.8-9.4,81.1-53,81.1-102.9C356,146.6,309.3,99.8,250,99.8z M225,408.6h46.8v-43.7H225V408.6z"/>
	</g>
</g>
</svg>
