<?xml version="1.0" encoding="utf-8"?>
<!-- Generator: Adobe Illustrator 22.0.0, SVG Export Plug-In . SVG Version: 6.00 Build 0)  -->
<svg version="1.1" id="图层_1" xmlns="http://www.w3.org/2000/svg" xmlns:xlink="http://www.w3.org/1999/xlink" x="0px" y="0px"
	 viewBox="0 0 500 500" style="enable-background:new 0 0 500 500;" xml:space="preserve">
<style type="text/css">
	.st0{fill:#999999;}
</style>
<path class="st0" d="M494.9,246.3L459,199.2c8.2-7,16.1-14.4,23.8-22.3c9.3-9.5,9.3-25,0-34.6c-9.3-9.6-24.3-9.6-33.5,0
	c-53.8,55.5-125.1,86-201,86c-75.9,0-147.3-30.6-201-86c-9.3-9.6-24.3-9.6-33.5,0c-9.3,9.6-9.3,25,0,34.6
	c9.6,9.9,19.8,18.9,30.3,27.4l-37,38.2c-9.3,9.6-9.3,25,0,34.6c4.6,4.8,10.7,7.2,16.8,7.2c6.1,0,12.1-2.4,16.8-7.2l43.6-45
	c12.8,7.6,25.9,14.4,39.6,20.1l-22.9,56.7c-5,12.5,0.7,26.8,12.8,32c2.9,1.2,6,1.9,9.1,1.9c9.3,0,18.1-5.7,21.9-15.1l24.5-60.7
	c18.1,4.6,36.7,7.7,55.6,9v65.3c0,13.5,10.6,24.5,23.7,24.5c13.1,0,23.7-11,23.7-24.5v-65.3c18.5-1.3,36.6-4.3,54.3-8.7l27.2,61.1
	c4,9,12.6,14.2,21.5,14.2c3.3,0,6.7-0.7,9.9-2.2c11.9-5.7,17.1-20.2,11.6-32.5l-24.7-55.5c16.8-7,32.8-15.5,48.3-25.3l37.5,49.2
	c4.7,6.1,11.6,9.3,18.6,9.3c5.1,0,10.3-1.7,14.6-5.2C501.2,272.3,503,256.9,494.9,246.3"/>
</svg>
