<?xml version="1.0" encoding="utf-8"?>
<!-- Generator: Adobe Illustrator 22.0.0, SVG Export Plug-In . SVG Version: 6.00 Build 0)  -->
<svg version="1.1" id="图层_1" xmlns="http://www.w3.org/2000/svg" xmlns:xlink="http://www.w3.org/1999/xlink" x="0px" y="0px"
	 viewBox="0 0 500 500" style="enable-background:new 0 0 500 500;" xml:space="preserve">
<style type="text/css">
	.st0{fill-rule:evenodd;clip-rule:evenodd;fill:#2F7CD7;}
</style>
<g>
	<g>
		<path class="st0" d="M33.3,483.7h433.3v-33.3H33.3V483.7z M466.7,117v100h-100v33.3h100V317h-100v33.3h100v100H500v-100V317v-66.7
			V217V117H466.7z M400,83.7V117h66.7V83.7H400z M333.3,250.3V317h33.3v-66.7H333.3z M333.3,83.7H300V117h33.3V83.7z M200,83.7
			h-33.3V117H200V83.7z M233.3,150.3v33.3h33.3v-33.3H300V117h-33.3V17h-33.3v100H200v33.3H233.3z M0,117v333.3h33.3V117H0z
			 M100,83.7H33.3V117H100V83.7z"/>
	</g>
</g>
</svg>
