<?xml version="1.0" encoding="utf-8"?>
<!-- Generator: Adobe Illustrator 22.0.0, SVG Export Plug-In . SVG Version: 6.00 Build 0)  -->
<svg version="1.1" id="图层_1" xmlns="http://www.w3.org/2000/svg" xmlns:xlink="http://www.w3.org/1999/xlink" x="0px" y="0px"
	 viewBox="0 0 500 500" style="enable-background:new 0 0 500 500;" xml:space="preserve">
<style type="text/css">
	.st0{fill:#29AB91;}
</style>
<path class="st0" d="M151.5,250.3c-45.6,0-82.5,36.9-82.5,82.4h0.4c-0.1,0.7-0.4,1.2-0.4,1.9c0,8,6.6,14.6,14.6,14.6h135.8
	c8.1,0,14.6-6.5,14.6-14.6c0-0.7-0.3-1.3-0.4-1.9h0.4C234,287.2,197.1,250.3,151.5,250.3L151.5,250.3z M201,200.8
	c0-27.3-22.2-49.5-49.5-49.5c-27.3,0-49.5,22.1-49.5,49.5c0,27.3,22.2,49.4,49.5,49.4C178.8,250.3,201,228.1,201,200.8L201,200.8z
	 M283.5,217.3h99c9.1,0,16.5-7.4,16.5-16.5c0-9-7.4-16.5-16.5-16.5h-99c-9.1,0-16.5,7.5-16.5,16.5
	C267,209.9,274.4,217.3,283.5,217.3L283.5,217.3z M415.5,250.3h-132c-9.1,0-16.5,7.4-16.5,16.5c0,9.1,7.4,16.5,16.5,16.5h132
	c9.1,0,16.5-7.4,16.5-16.5C432,257.7,424.6,250.3,415.5,250.3L415.5,250.3z M432,52H69C32.6,52,3,81.6,3,118v264
	c0,36.4,29.6,66,66,66h363c36.4,0,66-29.6,66-66V118C498,81.5,468.4,52,432,52L432,52z M465,382c0,18.2-14.8,33-33,33H69
	c-18.2,0-33-14.8-33-33V118c0-18.2,14.8-33,33-33h363c18.2,0,33,14.8,33,33V382z M382.5,316.2h-99c-9.1,0-16.5,7.4-16.5,16.5
	c0,9,7.4,16.5,16.5,16.5h99c9.1,0,16.5-7.4,16.5-16.5C399,323.6,391.6,316.2,382.5,316.2L382.5,316.2z M382.5,316.2"/>
</svg>
