<?xml version="1.0" encoding="utf-8"?>
<!-- Generator: Adobe Illustrator 22.0.0, SVG Export Plug-In . SVG Version: 6.00 Build 0)  -->
<svg version="1.1" id="图层_1" xmlns="http://www.w3.org/2000/svg" xmlns:xlink="http://www.w3.org/1999/xlink" x="0px" y="0px"
	 viewBox="0 0 500 500" style="enable-background:new 0 0 500 500;" xml:space="preserve">
<style type="text/css">
	.st0{fill:#FFFFFF;}
</style>
<g>
	<g>
		<path class="st0" d="M256.2,280.1c-6.2,3.1-9.3,9.3-9.3,15.6c0,6.2,3.1,12.4,9.3,15.6c6.2,3.1,12.4,3.1,18.7,0
			c6.2-3.1,9.3-9.3,9.3-15.6c0-6.2-3.1-12.4-9.3-15.6C268.7,277,262.4,277,256.2,280.1z M203.3,277c-9.3,0-18.7,9.3-18.7,18.7
			c0,9.3,9.3,18.7,18.7,18.7c9.3,0,18.7-9.3,18.7-18.7C222,286.3,212.7,277,203.3,277z M131.7,280.1c-6.2,3.1-9.3,9.3-9.3,15.6
			c0,6.2,3.1,12.4,9.3,15.6c6.2,3.1,12.4,3.1,18.7,0c6.2-3.1,9.3-9.3,9.3-15.6c0-6.2-3.1-12.4-9.3-15.6S138,277,131.7,280.1z
			 M436.7,0H63.3C47.7,0,32.1,12.4,32.1,31.1V470c0,15.6,12.4,31.1,31.1,31.1h373.5c15.6,0,31.1-12.4,31.1-31.1V31.1
			C467.9,12.4,455.4,0,436.7,0z M436.7,463.8H66.4V31.1h370.4V463.8z M138,124.5H362c9.3,0,15.6-6.2,15.6-15.6s-6.2-15.6-15.6-15.6
			H138c-9.3,0-15.6,6.2-15.6,15.6S128.6,124.5,138,124.5z M138,217.9H362c9.3,0,15.6-6.2,15.6-15.6c0-9.3-6.2-15.6-15.6-15.6H138
			c-9.3,0-15.6,6.2-15.6,15.6C122.4,211.6,128.6,217.9,138,217.9z"/>
	</g>
</g>
</svg>
