<?xml version="1.0" encoding="utf-8"?>
<!-- Generator: Adobe Illustrator 22.0.0, SVG Export Plug-In . SVG Version: 6.00 Build 0)  -->
<svg version="1.1" id="图层_1" xmlns="http://www.w3.org/2000/svg" xmlns:xlink="http://www.w3.org/1999/xlink" x="0px" y="0px"
	 viewBox="0 0 500 500" style="enable-background:new 0 0 500 500;" xml:space="preserve">
<style type="text/css">
	.st0{fill:#29AB91;}
</style>
<g>
	<g>
		<path class="st0" d="M62.5,384.3h398.4v-15.5H62.5V384.3z M145.3,431H89.9l-6.2-5.4l-10.9,11.7l10.9,9.3h67.9l10.2-10.1
			l-10.9-10.9L145.3,431z M434.4,431h-55.5l-6.3-5.4l-10.9,11.7l10.9,9.3h67.9l10.2-10.1l-10.9-10.9L434.4,431z M445.3,353.2h15.6
			V135.6h-15.6V353.2z M62.5,120h398.4v-15.5H62.5V120z M265.6,337.6c51.7-0.1,93.6-41.8,93.8-93.3c0-37.7-22.8-71.7-57.9-86.2
			c-35-14.4-75.4-6.5-102.2,20.2c-26.8,26.7-34.8,66.8-20.3,101.7C193.5,314.9,227.7,337.6,265.6,337.6z M187.9,236.6
			c1.6-15.5,7.7-29.7,17.1-41.2l15.8,15.5l10.9-10.8L216,184.3c11.6-9.5,26-15.7,41.8-17.3v22.9h15.6v-22.9
			c15.6,1.6,29.8,7.7,41.3,17l-15.8,15.8l11.1,11.2l15.9-15.8c9.5,11.5,15.7,25.8,17.3,41.4h-23v15.6h23.1
			c-1.6,15.7-7.8,30.1-17.4,41.6l-16-15.9l-11,11l16,15.9c-11.6,9.4-25.8,15.5-41.5,17v-23h-15.6v23c-15.8-1.6-30.1-7.8-41.7-17.2
			l15.8-15.7l-11-11L205,293.5c-9.4-11.5-15.6-25.8-17.2-41.4h23.1v-15.6H187.9z M265.6,291L265.6,291c25.9-0.1,46.8-20.9,46.9-46.6
			c0-25.8-21-46.6-46.9-46.6c-25.9,0-46.9,20.9-46.9,46.6C218.8,270.1,239.7,291,265.6,291z M467.2,73.4H58.6
			c-16.4,0-35.2,14-35.2,31.9v45.9h-7.8c-8.6,0-15.6,7-15.6,15.5v38.9c0,8.6,7,15.5,15.6,15.5h7.7l0.1,46.6h-7.8
			c-8.6,0-15.6,7-15.6,15.5v38.9c0,8.6,7,15.5,15.6,15.5h7.8V382c0,17.1,17.2,33.4,35.2,33.4h408.6c18.1-0.7,32.5-15.4,32.8-33.4
			V105.2C499.3,87.6,484.9,73.7,467.2,73.4z M484.4,382c0,8.6-8.6,17.9-17.2,17.9H58.6c-9.3,0-19.5-9.3-19.5-17.9v-44.3h23.4v15.5
			h15.6v-15.5h31.3v-38.9H93.8v23.3H15.6v-38.9h93.8v-15.5H78.1v-31.1H62.5v31.1H39v-46.6h70.4v-38.9H93.8v23.3H15.6v-38.9h93.8
			v-15.5H78.1v-15.5H62.5v15.5H39.1v-45.9c0-8.5,10.9-16.3,19.5-16.3h408.6c9.1,0.3,16.5,7.3,17.2,16.3V382z"/>
	</g>
</g>
</svg>
