<?xml version="1.0" encoding="utf-8"?>
<!-- Generator: Adobe Illustrator 22.0.0, SVG Export Plug-In . SVG Version: 6.00 Build 0)  -->
<svg version="1.1" id="图层_1" xmlns="http://www.w3.org/2000/svg" xmlns:xlink="http://www.w3.org/1999/xlink" x="0px" y="0px"
	 viewBox="0 0 500 500" style="enable-background:new 0 0 500 500;" xml:space="preserve">
<style type="text/css">
	.st0{fill:#108EE9;}
</style>
<g>
	<g>
		<path class="st0" d="M52.2,89.5h68.1c6.3,0,11.4-5,11.4-12.6c0-7.6-5-12.6-12.6-12.6h-24V54.3c0-7.6,7.6-15.1,17.7-15.1h328.1
			c8.8,0,16.4,7.5,17.7,15.1v156.1c0,7.6-7.6,15.1-17.7,15.1H112.7c-10.1,0-17.7-6.3-17.7-15.1v-10.1c0-7.6-5-12.6-12.6-12.6
			c-7.6,0-12.6,5-12.6,12.6v10.1c0,21.4,18.9,40.3,42.9,40.3h328.1c22.7,0,41.6-17.6,42.9-41.5V54.3c0-22.7-18.9-40.3-42.9-40.3
			H112.7c-24,0-42.9,18.9-42.9,40.3v10.1H52.2c-7.6,0-12.6,5-12.6,12.6C39.5,84.5,44.6,89.5,52.2,89.5z M45.9,102.1
			c0-7.6-5-12.6-12.6-12.6H15.6C8,89.5,3,94.6,3,102.1s5,12.6,12.6,12.6h17.7C40.8,114.7,45.9,109.7,45.9,102.1z M125.3,152.5
			c0-7.6-5-12.6-12.6-12.6H95.1v-15.1c0-7.5-5-12.6-12.6-12.6c-7.6,0-12.6,5-12.6,12.6v15.1H38.3c-7.6,0-12.6,5-12.6,12.6
			c0,7.5,5,12.6,12.6,12.6h74.4C119,165,125.3,160,125.3,152.5z M220.9,143l-8.4,14.3l27.7,16.3L229,192.8l12.1,7.1l11.3-19.1
			l10.4,6.2l-9.8,16.6l12.1,7.1l9.8-16.6c23,13.3,39.6,11.4,49.9-5.8c5.3-9.8,4.5-20.2-2.5-31.1c9.8,0.3,17.1-3.6,22-11.8
			c7.9-15.8,1.4-30.5-19.5-44.1l-1-0.6l8.4-14.3l-12.1-7.1l-8.4,14.2l-12-7.1l9.9-16.9l-12.1-7.1l-9.9,16.8l-1-0.6L282,76v0l-16-9.4
			l-8.4,14.3l15.9,9.4l-36.8,61.9L220.9,143z M292.8,101.9l20.5,12.2c10.5,6.7,14.3,13.4,11.2,20.3c-4.9,7.4-12.9,7.9-24.2,1.6
			l-20.5-12.2L292.8,101.9z M271,138.6l21.6,12.8c13.1,8.2,17.4,16.6,12.7,25.3c-5.2,8-14,8.5-26.4,1.5l-23.2-13.8L271,138.6z
			 M495,332.4c-2.5-10.1-8.8-16.4-16.4-20.1c-15.1-7.6-34.1-1.3-51.7,5c-7.6,2.5-17.7,6.3-26.5,10.1c-6.3,2.5-10.1,10.1-7.6,16.4
			c2.5,6.3,10.1,10.1,16.4,7.6c10.1-3.8,18.9-7.6,26.5-10.1c12.6-3.8,26.5-8.8,32.8-6.3c0,0,2.5,0,3.8,5c5,12.6-8.8,22.7-8.8,22.7
			c-5,2.5-127.4,75.5-150.1,90.6c-16.4,12.6-41.6,6.3-41.6,6.3L79.9,409.2v-83.1h218.3c16.4,0,25.2,3.8,25.2,10.1
			c0,11.3-8.8,16.4-12.6,17.6l-80.7,5c-6.3,1.3-12.6,7.6-11.4,13.8c1.3,6.3,6.3,11.3,13.9,11.3l82-7.6h2.5
			c12.6-3.8,31.5-16.4,31.5-41.5c0-10.1-5-35.2-50.5-35.2H68.6c-7.6,0-12.6,5-12.6,12.6V418c0,6.3,3.8,11.3,8.8,12.6l201.9,52.9
			c0,0,8.8,2.5,20.2,2.5c11.4,0,27.8-1.3,39.1-11.3c21.4-15.1,147.6-89.4,148.9-90.6C486.2,376.5,503.9,357.6,495,332.4z"/>
	</g>
</g>
</svg>
