<?xml version="1.0" encoding="utf-8"?>
<!-- Generator: Adobe Illustrator 22.0.0, SVG Export Plug-In . SVG Version: 6.00 Build 0)  -->
<svg version="1.1" id="图层_1" xmlns="http://www.w3.org/2000/svg" xmlns:xlink="http://www.w3.org/1999/xlink" x="0px" y="0px"
	 viewBox="0 0 662.2 173.3" style="enable-background:new 0 0 662.2 173.3;" xml:space="preserve">
<style type="text/css">
	.st0{fill:#FFFFFF;}
</style>
<g>
	<g>
		<path class="st0" d="M234.1,55.4h-42.3c-1.5,0-2.7,1.2-2.7,2.8v80.6c0,1.5,1.2,2.8,2.7,2.8h16.3c1.5,0,2.7-1.2,2.7-2.8v-30.1
			c0-0.7,0.5-1.2,1.2-1.2h19.8c1.5,0,2.7-1.2,2.7-2.8V91.6c0-1.5-1.2-2.8-2.7-2.8h-19.9c-0.6,0-1.2-0.5-1.2-1.2V75.3
			c0-0.7,0.5-1.2,1.2-1.2h22.2c1.5,0,2.7-1.2,2.7-2.8V58.2C236.8,56.7,235.6,55.4,234.1,55.4z M324.6,55.4h-16.3
			c-1.5,0-2.7,1.3-2.7,2.8V102c0,8.1-1,13.5-3,16.3c-2.7,3.8-6.7,5.7-11.9,5.7c-2.2,0-4.4-0.5-6.5-1.4c-4.7-2.3-7.3-6.4-7.7-12.2
			c-0.1-1.8-0.2-4.6-0.2-8.4V58.2c0-1.5-1.2-2.8-2.7-2.8h-16.3c-1.5,0-2.7,1.2-2.7,2.8v46.9c-0.1,5.1,0.3,10.3,1.3,15.3
			c1.1,5,3.5,9.6,7,13.3c6.5,6.7,15.4,10.1,26.9,10.1c11.3,0,20.3-3.3,27.1-9.9c4.7-4.7,7.7-9.8,9-15.5c0.9-4.4,1.3-8.8,1.2-13.2
			l0-46.9C327.3,56.7,326.1,55.4,324.6,55.4z M386.8,89.3c-6.1-1.9-9.8-3.2-11-3.9c-2.7-1.6-4.1-3.6-4.1-5.9c0-2.3,1.2-4.4,3.1-5.6
			c1.9-1.3,4-1.9,6.2-1.9c4.2,0.1,8.4,1.5,11.9,4c0.1,0.1,0.2,0.1,0.2,0.1c1.3,0.7,2.9,0.2,3.6-1.2l6-12c0,0,0-0.1,0-0.1
			c0.6-1.4,0-3-1.3-3.7c-7.4-3.7-15.6-5.7-23.9-5.7c-8.9,0-16.1,3.1-21.5,9.3c-4.6,5.2-6.9,11.9-6.9,19.9c0,7.6,2.2,13.4,6.6,17.2
			c1.7,1.4,3.6,2.5,5.6,3.4c1.4,0.6,4.8,1.8,10.1,3.4c4.4,1.3,7.6,2.6,9.5,3.9c2.5,1.7,3.8,3.8,3.8,6.4c0.1,2.6-1.2,5.1-3.4,6.5
			c-2.1,1.4-4.6,2.1-7.1,2c-5.4,0-11-2.3-16.7-7c-0.1-0.1-0.3-0.2-0.4-0.3c-1.3-0.7-2.9-0.2-3.6,1.2l-6.6,12.8
			c-0.6,1.3-0.2,2.9,1,3.7c8,5.5,17.3,8.4,26.9,8.3c4.7,0,9.4-0.8,13.9-2.3c12.4-4.4,18.5-13.9,18.5-28.5c0-5.7-1.4-10.3-4.2-13.9
			C399.9,94.9,394.4,91.6,386.8,89.3z M426,141.5h21.7V55.4H426V141.5z M512.4,52.8c-14.6,0-26.2,5-34.8,15.1
			c-3.5,4.2-6.3,9.1-8.1,14.4c-2,5.2-3,10.8-3,16.4c-0.1,11.4,3.9,22.4,11.3,30.8c8.5,10.1,20.1,15.1,34.7,15.1s26.2-5,34.8-15.1
			c7.4-8.4,11.4-19.4,11.3-30.8c0.1-11.4-3.9-22.4-11.3-30.9C538.7,57.9,527.1,52.8,512.4,52.8z M536.1,99
			c-0.1,13.4-10.7,24.1-23.6,24c-6.9,0.2-13.6-3-18-8.5c-3.6-4.3-5.6-9.9-5.6-15.6c0-7.1,3.1-13.9,8.3-18.5
			c9.9-8.8,24.8-7.6,33.3,2.7c3.7,4.3,5.7,10,5.6,15.8C536.1,98.8,536.1,98.9,536.1,99z M657.6,55.4h-16.3c-1.5,0-2.7,1.2-2.7,2.8
			v46.4c0,0.4-0.2,0.7-0.4,0.9c-0.5,0.4-1.2,0.3-1.6-0.2l-36.9-48.9c-0.5-0.7-1.3-1.1-2.1-1.1h-17.6c-1.5,0-2.7,1.2-2.7,2.8v80.5
			c0,1.5,1.2,2.8,2.7,2.8h18.9V92.3c0-0.4,0.2-0.7,0.4-0.9c0.5-0.4,1.2-0.3,1.6,0.2l36.9,48.9c0.5,0.7,1.3,1.1,2.1,1.1h17.6
			c1.5,0,2.7-1.2,2.7-2.8V58.2C660.3,56.7,659.1,55.4,657.6,55.4z M109.2,103c-11.4,0-20.6,9.5-20.6,21.3c0,11.8,9.2,21.3,20.6,21.3
			c11.4,0,20.6-9.5,20.6-21.3C129.8,112.5,120.5,103,109.2,103z M92,35.9c15-17,32.7-27.5,53-24c0,0-33.4-40.1-77.8,27.1l-0.2,0.3
			C10.2,48.9,0.3,80.1,0.3,80.1C18.5,60.7,51.4,58.3,57.6,58c-13.4,29.2-31.7,78.7-28.3,115.1c6.1-19.3,22-76,47.7-116.8
			c55.9-2.7,83.4,17.7,83.4,17.7C146.7,35.1,99.2,35.6,92,35.9z"/>
	</g>
</g>
</svg>
