<?xml version="1.0" encoding="utf-8"?>
<!-- Generator: Adobe Illustrator 22.0.0, SVG Export Plug-In . SVG Version: 6.00 Build 0)  -->
<svg version="1.1" id="图层_1" xmlns="http://www.w3.org/2000/svg" xmlns:xlink="http://www.w3.org/1999/xlink" x="0px" y="0px"
	 viewBox="0 0 500 500" style="enable-background:new 0 0 500 500;" xml:space="preserve">
<style type="text/css">
	.st0{fill:#108EE9;}
</style>
<g>
	<g>
		<path class="st0" d="M477.9,26.8c-4.8-3.9-11.3-4.9-17-2.5l-436.6,183c-5.8,2.4-9.8,8-10.3,14.3c-0.5,6.3,2.6,12.4,8.1,15.7
			l139.9,85c1,0.7,2.1,1.2,3.2,1.6v137.4c0,9.3,7.5,16.9,16.8,16.9c9.3,0,16.8-7.5,16.8-16.9v-139l198.2-170.3
			c7-6.1,7.9-16.7,1.8-23.8c-6-7.1-16.6-7.9-23.7-1.9l-195,167.6c-0.2-0.2-0.5-0.3-0.7-0.4L67.8,225.6L445,67.5l-66,349.3
			l-120.9-76.9c-7.8-5-18.2-2.6-23.2,5.2c-5,7.9-2.6,18.3,5.2,23.3l141.8,90.2c4.7,3,10.6,3.5,15.7,1.2c5.1-2.2,8.8-6.8,9.8-12.3
			L483.8,43C485,36.9,482.7,30.7,477.9,26.8z"/>
	</g>
</g>
</svg>
