<?xml version="1.0" encoding="utf-8"?>
<!-- Generator: Adobe Illustrator 22.0.0, SVG Export Plug-In . SVG Version: 6.00 Build 0)  -->
<svg version="1.1" id="图层_1" xmlns="http://www.w3.org/2000/svg" xmlns:xlink="http://www.w3.org/1999/xlink" x="0px" y="0px"
	 viewBox="0 0 500 500" style="enable-background:new 0 0 500 500;" xml:space="preserve">
<style type="text/css">
	.st0{fill:#F15A4A;}
</style>
<g>
	<g>
		<path class="st0" d="M492.2,194.2l-2.5-9.8l-9.8-2.5c-19.6-4.9-36.8-17.2-46.6-36.8c-9.8-19.7-12.3-39.3-7.4-59l2.5-9.8l-7.4-7.4
			c-7.4-4.9-14.7-12.3-22.1-17.2l-36.8-22.1c-4.9-2.5-12.3-7.4-19.6-9.8l-22.1-7.4l-7.4-2.5l-2.5,7.4
			c-14.7,14.7-34.4,22.1-56.4,22.1c-22.1,0-41.7-7.4-56.4-22.1l-7.4-7.4l-7.4,2.5c-4.9,2.5-12.3,4.9-19.6,7.4h-2.5
			c-7.4,2.5-14.7,7.4-22.1,9.8c-12.3,4.9-24.5,12.3-36.8,22.1C94.7,59.1,87.3,64,82.4,69L75,76.3l2.5,9.8
			c4.9,17.2,2.5,39.3-9.8,56.5c-9.8,19.7-27,31.9-46.6,36.8l-9.8,2.5l-2.5,9.8c-2.5,9.8-4.9,17.2-4.9,27v59c0,7.4,2.5,17.2,4.9,27
			l2.5,9.8l9.8,2.5c19.6,4.9,36.8,17.2,46.6,36.8c12.3,17.2,14.7,39.3,9.8,56.5l-2.5,9.8l7.4,7.4c7.4,4.9,14.7,12.3,22.1,17.2
			l36.8,22.1c4.9,2.5,12.3,7.4,19.6,9.8h2.5c7.4,2.5,12.3,4.9,19.6,7.4l7.4,2.5l2.5-7.4c14.7-14.7,34.4-22.1,56.4-22.1
			c22.1,0,41.7,7.4,56.4,22.1l7.4,7.4l7.4,2.5c4.9-2.5,12.3-4.9,19.6-7.4h2.5c7.4-2.5,12.3-7.4,19.6-9.8
			c12.3-4.9,24.5-12.3,36.8-22.1c7.4-4.9,14.7-9.8,22.1-17.2l7.4-7.4l-2.5-9.8c-7.4-19.7-2.5-39.3,7.4-59
			c9.8-19.6,27-31.9,46.6-36.8l9.8-2.5l2.5-9.8c2.5-9.8,4.9-17.2,4.9-27v-59C497.1,213.9,494.7,204.1,492.2,194.2z M465.2,236v44.2
			c0,4.9-2.5,9.8-2.5,14.7c-22.1,7.4-44.2,24.6-56.4,46.7c-12.3,22.1-17.2,46.7-12.3,71.2c-2.5,2.5-7.4,7.4-12.3,9.8
			c-9.8,7.4-19.6,14.7-31.9,19.6c-4.9,2.5-9.8,4.9-17.2,7.4h-2.5c-2.5,0-7.4,2.5-9.8,2.5c-17.2-14.7-41.7-24.6-68.7-24.6
			c-24.5,0-49.1,9.8-68.7,24.6c-2.5,0-7.4,0-9.8-2.5h-2.5c-4.9-2.5-12.3-4.9-17.2-9.8c-12.3-4.9-24.5-12.3-34.4-19.7
			c-2.5-2.5-7.4-7.4-12.3-9.8c4.9-22.1,0-49.1-12.3-71.2c-12.3-22.1-34.4-39.3-56.4-46.7c0-7.4-2.5-12.3-2.5-17.2v-54
			c0-4.9,2.5-9.8,2.5-14.7c22.1-9.8,41.7-24.6,56.4-49.1c12.3-22.1,17.2-46.7,12.3-71.2c4.9-2.5,9.8-7.4,12.3-9.8
			c12.3-7.4,22.1-14.7,34.4-19.7c4.9-4.9,12.3-7.4,17.2-9.8h2.5c2.5,0,7.4-2.5,9.8-2.5C200.2,59.1,224.7,69,251.7,69
			c24.5,0,49.1-9.8,68.7-24.6c2.5,0,7.4,0,9.8,2.5h2.5c4.9,2.5,12.3,4.9,14.7,9.8c12.3,4.9,24.5,12.3,34.4,19.7
			c4.9,2.5,9.8,7.4,14.7,12.3c-4.9,22.1,0,49.1,12.3,71.2c12.3,22.1,34.4,39.3,56.4,46.7c0,4.9,2.5,9.8,2.5,14.7
			C467.7,223.7,467.7,226.2,465.2,236z M339.1,300.5l-55.2-55.2l-30.5,30.4l55,55l4.5,4.2c3.1,2.2,6.8,3.7,10.9,4
			c5.8,0.4,11.5-1.4,15.8-5.1c4.4-3.7,7.1-9,7.5-14.8c0.4-5-1-9.9-3.9-14L339.1,300.5z M280.2,211.3l-1.5-1.5l14.6-14.2
			c2.4-2.4,2.5-6.3,0.1-8.7l-24.5-25c-2.4-2.4-6.3-2.5-8.8-0.1l-14.9,14.5l-2-2c-4.9-4.9-12.9-4.9-17.9-0.1l-37.3,36.8
			c-4.8,4.8-4.9,12.4-0.3,17.3c-19,20.3-24.3,56.9-14.8,76.8l46.5-45.1l5.7,5.7c4.9,4.9,12.9,4.9,17.8,0l37.3-36.8
			C285.1,224.2,285.1,216.2,280.2,211.3z"/>
	</g>
</g>
</svg>
