<?xml version="1.0" encoding="utf-8"?>
<!-- Generator: Adobe Illustrator 22.0.0, SVG Export Plug-In . SVG Version: 6.00 Build 0)  -->
<svg version="1.1" id="图层_1" xmlns="http://www.w3.org/2000/svg" xmlns:xlink="http://www.w3.org/1999/xlink" x="0px" y="0px"
	 viewBox="0 0 500 500" style="enable-background:new 0 0 500 500;" xml:space="preserve">
<style type="text/css">
	.st0{fill-rule:evenodd;clip-rule:evenodd;fill:#29AB91;}
</style>
<g>
	<g>
		<path class="st0" d="M53,211c-22.7,0-41,18.4-41,41c0,22.7,18.4,41,41,41c22.7,0,41-18.4,41-41C94.1,229.4,75.7,211,53,211z
			 M250,211c-22.7,0-41,18.4-41,41c0,22.7,18.4,41,41,41c22.7,0,41-18.4,41-41C291,229.4,272.7,211,250,211z M447,211
			c-22.7,0-41,18.4-41,41c0,22.7,18.4,41,41,41c22.7,0,41-18.4,41-41C488,229.4,469.6,211,447,211z"/>
	</g>
</g>
</svg>
