<?xml version="1.0" encoding="utf-8"?>
<!-- Generator: Adobe Illustrator 22.0.0, SVG Export Plug-In . SVG Version: 6.00 Build 0)  -->
<svg version="1.1" id="图层_1" xmlns="http://www.w3.org/2000/svg" xmlns:xlink="http://www.w3.org/1999/xlink" x="0px" y="0px"
	 viewBox="0 0 500 500" style="enable-background:new 0 0 500 500;" xml:space="preserve">
<style type="text/css">
	.st0{fill:#FFFFFF;}
</style>
<path class="st0" d="M94.1,274.3c-18.7,0-31.2,12.5-31.2,31.2c0,18.7,12.5,31.2,31.2,31.2s31.2-12.5,31.2-31.2
	C125.3,286.8,112.8,274.3,94.1,274.3L94.1,274.3z M499.4,149.6c0-12.5-3.1-37.4-37.4-46.8L109.7,34.3c-24.9,0-46.8,18.7-46.8,43.6
	v59.2H47.4c-24.9,0-46.8,21.8-46.8,43.6v240c0,24.9,21.8,43.6,46.8,43.6h405.3c24.9,0,46.8-18.7,46.8-43.6V149.6L499.4,149.6z
	 M94.1,77.9c0-9.4,6.2-15.6,15.6-15.6l342.9,68.6c0,0-3.1,9.4-15.6,9.4H94.1V77.9L94.1,77.9z M468.2,427.1c0,9.4-6.2,15.6-15.6,15.6
	H47.4c-9.4,0-15.6-6.2-15.6-15.6v-240c0-9.4,6.2-15.6,15.6-15.6h389.7c15.6,0,31.2-6.2,31.2-15.6V427.1L468.2,427.1z"/>
</svg>
