<?xml version="1.0" encoding="utf-8"?>
<!-- Generator: Adobe Illustrator 22.0.0, SVG Export Plug-In . SVG Version: 6.00 Build 0)  -->
<svg version="1.1" id="图层_1" xmlns="http://www.w3.org/2000/svg" xmlns:xlink="http://www.w3.org/1999/xlink" x="0px" y="0px"
	 viewBox="0 0 500 500" style="enable-background:new 0 0 500 500;" xml:space="preserve">
<style type="text/css">
	.st0{fill-rule:evenodd;clip-rule:evenodd;fill:#FFFFFF;}
</style>
<g>
	<g>
		<path class="st0" d="M33.4,484H467v-33.4H33.4V484z M467,117.1v100.1H366.9v33.4H467v66.7H366.9v33.4H467v100.1h33.4V117.1H467z
			 M400.3,83.7v33.4H467V83.7H400.3z M333.6,250.5v66.7h33.4v-66.7H333.6z M233.5,183.8h33.4v-66.7h66.7V83.7h-66.7V17h-33.4v66.7
			h-66.7v33.4h66.7V183.8z M0,117.1v333.6h33.4V117.1H0z M100.1,83.7H33.4v33.4h66.7V83.7z"/>
	</g>
</g>
</svg>
