<?xml version="1.0" encoding="utf-8"?>
<!-- Generator: Adobe Illustrator 22.0.0, SVG Export Plug-In . SVG Version: 6.00 Build 0)  -->
<svg version="1.1" id="图层_1" xmlns="http://www.w3.org/2000/svg" xmlns:xlink="http://www.w3.org/1999/xlink" x="0px" y="0px"
	 viewBox="0 0 500 500" style="enable-background:new 0 0 500 500;" xml:space="preserve">
<style type="text/css">
	.st0{fill:#29AB91;}
</style>
<g>
	<g>
		<path class="st0" d="M250,0C111.9,0,0,111.9,0,250c0,138.1,111.9,250,250,250c138.1,0,250-111.9,250-250C500,111.9,388.1,0,250,0z
			 M250,465c-118.7,0-215-96.3-215-215c0-118.7,96.3-215,215-215c118.7,0,215,96.3,215,215C465,368.7,368.7,465,250,465z
			 M304.3,263.7L283,250.9l-15.1,25.7l22.9,13.8c12.2,6.9,20.8,6.4,26-1.5C321.4,280.3,317.2,271.9,304.3,263.7z M191.3,312.5h-71.6
			c-9.5,0-17.2,7.8-17.2,17.4v4.4c0,9.6,7.7,17.4,17.2,17.4h108.1C212.8,341.6,200.3,328.2,191.3,312.5z M179.7,223.3
			c4.2-15.9,11.7-30.7,22-43.5h-94.9c-9.5,0-17.2,7.8-17.2,17.4v8.7c0,9.6,7.7,17.4,17.2,17.4H179.7z M132.6,245
			c-9.5,0-17.2,7.8-17.2,17.4v8.7c0,9.6,7.7,17.4,17.2,17.4h48.3c-3.4-11-5.2-22.7-5.2-34.8c0-2.9,0.1-5.8,0.4-8.7H132.6z
			 M324.7,226.5l-20.2-12.1l-12.8,21.8l20.2,12.1c11.1,6.3,19,5.7,23.8-1.6C338.8,239.9,335.1,233.2,324.7,226.5z M292.1,149.3
			c-57.1,0-103.4,46.8-103.4,104.5c0,57.7,46.3,104.5,103.4,104.5c57.1,0,103.4-46.8,103.4-104.5C395.5,196,349.2,149.3,292.1,149.3
			z M355.1,257.7c-4.8,8.1-12,12-21.7,11.7c6.9,10.9,7.7,21.2,2.5,31c-10.1,17.1-26.4,19-49.2,5.8l-9.6,16.5l-11.9-7.1l9.6-16.6
			l-10.3-6.2L253.5,312l-11.9-7.1l11.1-19.1l-27.3-16.3l8.3-14.3l15.4,9.2l36.3-61.7l-15.7-9.4l8.3-14.3l15.8,9.4v0l4.5,2.7l1,0.6
			l9.8-16.8l11.9,7.1l-9.8,16.8l11.9,7.1l8.2-14.2l11.9,7.1l-8.3,14.3l1,0.6C356.5,227.3,362.9,242,355.1,257.7z"/>
	</g>
</g>
</svg>
