<?xml version="1.0" encoding="utf-8"?>
<!-- Generator: Adobe Illustrator 22.0.0, SVG Export Plug-In . SVG Version: 6.00 Build 0)  -->
<svg version="1.1" id="图层_1" xmlns="http://www.w3.org/2000/svg" xmlns:xlink="http://www.w3.org/1999/xlink" x="0px" y="0px"
	 viewBox="0 0 500 500" style="enable-background:new 0 0 500 500;" xml:space="preserve">
<style type="text/css">
	.st0{fill:#FFFFFF;}
</style>
<path class="st0" d="M0.5,249.5C0.5,112.3,112.8,0,250,0s249.5,112.3,249.5,249.5C499.5,386.7,387.2,499,250,499
	S0.5,386.7,0.5,249.5L0.5,249.5z M243.8,327.5c-21.8,0-37.4,18.7-37.4,37.4c0,18.7,18.7,37.4,37.4,37.4s37.4-18.7,37.4-37.4
	C281.2,346.2,262.5,327.5,243.8,327.5L243.8,327.5z M243.8,280.7c21.8,0,37.4-18.7,37.4-37.4V118.5c0-21.8-18.7-37.4-37.4-37.4
	s-37.4,18.7-37.4,37.4v124.8C203.2,262,221.9,280.7,243.8,280.7L243.8,280.7z M243.8,280.7"/>
</svg>
