<?xml version="1.0" encoding="utf-8"?>
<!-- Generator: Adobe Illustrator 22.0.0, SVG Export Plug-In . SVG Version: 6.00 Build 0)  -->
<svg version="1.1" id="图层_1" xmlns="http://www.w3.org/2000/svg" xmlns:xlink="http://www.w3.org/1999/xlink" x="0px" y="0px"
	 viewBox="0 0 500 500" style="enable-background:new 0 0 500 500;" xml:space="preserve">
<style type="text/css">
	.st0{fill:#1B0D56;}
</style>
<g>
	<g>
		<path class="st0" d="M487.5,239.8L487.5,239.8l-97.6-94.5c-9.1-6.1-18.3-6.1-27.4,0c-9.1,6.1-9.1,18.3,0,27.4l64,61h-186
			c-12.2,0-18.3,6.1-18.3,18.3s9.1,18.3,18.3,18.3h186l-64,61c-9.1,6.1-9.1,18.3,0,27.4c3,3,9.1,6.1,12.2,6.1c6.1,0,9.1-3,12.2-6.1
			l97.6-94.5c0,0,0-3,3-3C496.7,255,496.7,245.9,487.5,239.8z M435.7,383.1c-12.2,0-18.3,6.1-18.3,18.3V438
			c0,12.2-9.1,18.3-18.3,18.3H66.6c-12.2,0-18.3-6.1-18.3-18.3V62.9c0-12.2,9.1-18.3,18.3-18.3h332.4c12.2,0,18.3,6.1,18.3,18.3
			v36.6c0,12.2,9.1,18.3,18.3,18.3c12.2,0,18.3-6.1,18.3-18.3V62.9C454,32.4,429.6,8,396,8H63.6C30.1,8,5.7,32.4,5.7,62.9V438
			c0,30.5,24.4,54.9,57.9,54.9H396c33.5,0,57.9-24.4,57.9-54.9v-36.6C454,392.3,447.9,383.1,435.7,383.1z"/>
	</g>
</g>
</svg>
