<?xml version="1.0" standalone="no"?><!DOCTYPE svg PUBLIC "-//W3C//DTD SVG 1.1//EN" "http://www.w3.org/Graphics/SVG/1.1/DTD/svg11.dtd"><svg t="1539687805335" class="icon" style="" viewBox="0 0 1024 1024" version="1.1" xmlns="http://www.w3.org/2000/svg" p-id="7979" xmlns:xlink="http://www.w3.org/1999/xlink" width="200" height="200"><defs><style type="text/css"></style></defs><path d="M409.765888 355.436544H1024v61.483008H409.765888v-61.483008z m0 125.696H1024v61.519872H409.765888v-61.519872z m0 125.763584H1024v61.483008H409.765888v-61.483008z m0 0" fill="#8A8A8A" p-id="7980"></path><path d="M187.820032 250.820608l88.721408 159.227904 76.126208-117.848064h671.1296v-61.48096H319.225856l-38.795264 60.04736L192.589824 133.12l-124.717056 186.548224H0v61.483008h100.691968l87.128064-130.330624z m0 0" fill="#EA0070" p-id="7981"></path><path d="M276.60288 613.951488l-88.71936 159.232-87.134208-130.332672H0.055296v61.483008h67.874816L192.647168 890.88l87.840768-157.648896 38.791168 60.04736h704.518144v-61.48096H352.724992l-76.122112-117.846016z m0 0" fill="#00C087" p-id="7982"></path></svg>