<?xml version="1.0" encoding="utf-8"?>
<!-- Generator: Adobe Illustrator 22.0.0, SVG Export Plug-In . SVG Version: 6.00 Build 0)  -->
<svg version="1.1" id="图层_1" xmlns="http://www.w3.org/2000/svg" xmlns:xlink="http://www.w3.org/1999/xlink" x="0px" y="0px"
	 viewBox="0 0 500 500" style="enable-background:new 0 0 500 500;" xml:space="preserve">
<style type="text/css">
	.st0{fill:#1B0D56;}
</style>
<path class="st0" d="M469.7,297.9c-9.4-3.1-25,3.1-25,15.6C422.9,397.7,348,457,257.6,457c-106.1,0-193.4-84.2-193.4-190.3
	c0-102.9,87.3-190.3,193.4-190.3c49.9,0,96.7,18.7,131,53h-90.5c-9.4,0-21.8,9.4-21.8,21.8c0,9.4,9.4,21.8,21.8,21.8h131
	c9.4,0,21.8-9.4,21.8-21.8V23.4c0-9.4-9.4-21.8-21.8-21.8c-9.4,0-21.8,9.4-21.8,21.8v71.7c-43.7-37.4-96.7-59.3-156-59.3
	c-131,0-237.1,102.9-237.1,230.8c0,127.9,106.1,230.8,237.1,230.8c109.2,0,202.8-71.7,230.8-174.7
	C488.4,310.4,482.2,301,469.7,297.9L469.7,297.9z"/>
</svg>
