<?xml version="1.0" encoding="utf-8"?>
<!-- Generator: Adobe Illustrator 22.0.0, SVG Export Plug-In . SVG Version: 6.00 Build 0)  -->
<svg version="1.1" id="图层_1" xmlns="http://www.w3.org/2000/svg" xmlns:xlink="http://www.w3.org/1999/xlink" x="0px" y="0px"
	 viewBox="0 0 500 500" style="enable-background:new 0 0 500 500;" xml:space="preserve">
<style type="text/css">
	.st0{fill-rule:evenodd;clip-rule:evenodd;fill:#1B0D56;}
</style>
<g>
	<g>
		<path class="st0" d="M38.7,72.8c-16.6,0-30,11-30,24.7c0,13.6,13.5,24.7,30,24.7c16.6,0,30-11.1,30-24.7
			C68.7,83.9,55.3,72.8,38.7,72.8z M464.7,72.8H153.5c-13.6,0-24.7,11-24.7,24.7c0,13.6,11.1,24.7,24.7,24.7h311.2
			c13.6,0,24.7-11.1,24.7-24.7C489.4,83.9,478.3,72.8,464.7,72.8z M38.7,225c-16.6,0-30,10.9-30,24.4s13.5,24.4,30,24.4
			c16.6,0,30-10.9,30-24.4S55.3,225,38.7,225z M374.8,225H153.2c-13.5,0-24.4,10.9-24.4,24.4s10.9,24.4,24.4,24.4h221.6
			c13.5,0,24.4-10.9,24.4-24.4S388.3,225,374.8,225z M38.7,376.1c-16.6,0-30,11.1-30,24.9c0,13.7,13.5,24.9,30,24.9
			c16.6,0,30-11.1,30-24.9C68.7,387.3,55.3,376.1,38.7,376.1z M284.4,376.1H153.5c-13.6,0-24.7,11.1-24.7,24.7v0.4
			c0,13.6,11.1,24.7,24.7,24.7h130.9c13.6,0,24.7-11.1,24.7-24.7v-0.4C309.1,387.2,298,376.1,284.4,376.1z"/>
	</g>
</g>
</svg>
