<?xml version="1.0" encoding="utf-8"?>
<!-- Generator: Adobe Illustrator 22.0.0, SVG Export Plug-In . SVG Version: 6.00 Build 0)  -->
<svg version="1.1" id="图层_1" xmlns="http://www.w3.org/2000/svg" xmlns:xlink="http://www.w3.org/1999/xlink" x="0px" y="0px"
	 viewBox="0 0 500 500" style="enable-background:new 0 0 500 500;" xml:space="preserve">
<style type="text/css">
	.st0{fill:#1B0D56;}
</style>
<g>
	<g>
		<path class="st0" d="M491.1,202.7c0-5.8-5.8-8.7-8.7-8.7c-26.2-5.8-46.5-20.3-61-43.6c-11.6-23.3-17.4-49.4-8.7-72.7
			c0-5.8,0-8.7-2.9-11.6c-23.3-20.3-49.4-34.9-78.5-46.5c-5.8-2.9-8.7,0-11.6,2.9c-17.4,20.3-43.6,29.1-69.8,29.1
			s-49.4-11.6-69.8-29.1c-2.9-2.9-8.7-5.8-14.5-2.9c-29.1,11.6-55.2,26.2-78.5,46.5c-2.9,2.9-5.8,8.7-2.9,11.6
			c8.7,23.3,5.8,52.3-8.7,72.7c-14.5,23.3-34.9,37.8-61,43.6c-5.8,0-8.7,5.8-8.7,8.7c-5.8,29.1-5.8,61,0,93c0,5.8,5.8,8.7,8.7,8.7
			c26.2,5.8,46.5,20.3,61,43.6c14.5,23.3,17.4,49.4,8.7,72.7c0,5.8,0,8.7,2.9,11.6c23.3,20.3,49.4,34.9,78.5,46.5h2.9
			c2.9,0,5.8,0,8.7-2.9c17.4-20.3,43.6-29.1,69.8-29.1s49.4,11.6,69.8,29.1c2.9,5.8,8.7,5.8,14.5,2.9c29.1-8.7,58.1-26.2,81.4-46.5
			c2.9-2.9,5.8-8.7,2.9-11.6c-8.7-23.3-5.8-52.3,5.8-72.7c14.5-23.3,34.9-37.8,61-43.6c5.8,0,8.7-5.8,8.7-8.7
			C499.8,263.7,499.8,234.6,491.1,202.7z M462,281.1L462,281.1L462,281.1c-29.1,8.7-52.3,26.2-66.8,52.3
			c-14.5,23.3-17.4,55.2-11.6,81.4c-17.4,14.5-37.8,26.2-58.1,32c-20.3-20.3-46.5-32-75.6-32s-55.2,11.6-75.6,32
			c-20.3-8.7-40.7-20.3-58.1-32c5.8-26.2,2.9-55.2-11.6-81.4c-14.5-26.2-37.8-43.6-63.9-52.3c-2.9-23.3-2.9-43.6,0-66.8
			c26.2-8.7,52.3-26.2,66.8-52.3c14.5-23.3,17.4-55.2,11.6-81.4c17.4-14.5,37.8-26.2,58.1-32c20.3,20.3,49.4,29.1,75.6,29.1
			c29.1,0,55.2-11.6,75.6-29.1c20.3,8.7,40.7,20.3,58.1,32c-5.8,26.2-2.9,55.2,11.6,81.4c14.5,26.2,37.8,43.6,66.8,52.3
			C464.9,237.5,464.9,260.8,462,281.1z M249.9,150.3L249.9,150.3c-55.2,0-98.8,43.6-98.8,98.8c0,26.2,11.6,52.3,29.1,69.8
			c17.4,17.4,43.6,29.1,69.8,29.1c55.2,0,98.8-43.6,98.8-98.8c0-26.2-11.6-52.3-29.1-69.8C302.2,159.1,276,150.3,249.9,150.3z
			 M296.4,295.7c-11.6,11.6-29.1,20.3-46.5,20.3l0,0c-37.8,0-66.8-29.1-66.8-66.8s29.1-66.8,66.8-66.8s66.8,29.1,66.8,66.8
			C316.7,266.6,308,284,296.4,295.7z"/>
	</g>
</g>
</svg>
