<?xml version="1.0" encoding="utf-8"?>
<!-- Generator: Adobe Illustrator 22.0.0, SVG Export Plug-In . SVG Version: 6.00 Build 0)  -->
<svg version="1.1" id="图层_1" xmlns="http://www.w3.org/2000/svg" xmlns:xlink="http://www.w3.org/1999/xlink" x="0px" y="0px"
	 viewBox="0 0 500 500" style="enable-background:new 0 0 500 500;" xml:space="preserve">
<style type="text/css">
	.st0{fill:#108EE9;}
</style>
<g>
	<g>
		<path class="st0" d="M250.5,402.4c-53.5,0-102.7,23.8-125.4,60.6c-4.2,6.8-4.4,15.1-0.5,22c4.8,8.6,14.9,14,26.3,14H350
			c11.4,0,21.5-5.4,26.3-14c3.9-7,3.7-15.2-0.5-22C353.2,426.2,304,402.4,250.5,402.4z M350,475.8H151c-2.8,0-4.7-0.9-5.6-1.6
			c18.8-29.6,59.9-48.8,105.1-48.8c45.2,0,86.3,19.1,105.1,48.8C354.7,474.9,352.9,475.8,350,475.8z M488.1,100.2
			c-2.4-5.9-9.2-8.7-15.1-6.3l-29,11.9c-20.1,8.3-42.4,8.6-62.8,0.8c0,0-13.4-5.1-23.5-8.9c-8.3-3.1-17-4.7-25.8-4.7h0
			c-16.1,0-39.8,0-69.9,0V11.6c0-6.4-5.2-11.6-11.6-11.6c-6.4,0-11.6,5.2-11.6,11.6v81.5c-30.1,0-53.8,0-69.9,0h0
			c-8.9,0-17.5,1.6-25.8,4.7c-10,3.8-23.5,8.9-23.5,8.9c-20.3,7.8-42.6,7.5-62.8-0.8L28,93.9c-5.9-2.4-12.7,0.4-15.1,6.3
			c-2.4,5.9,0.4,12.7,6.3,15.1l29,11.9c9.9,4.1,20.2,6.6,30.7,7.7L22.2,249.6c-0.6,1-1,2.2-1.3,3.4c0,0.2-0.1,0.4-0.1,0.6
			c0,0.2-0.1,0.4-0.1,0.5c0,0.3-0.1,0.7-0.1,1l0,0.1c0,0.8-0.1,1.5-0.1,2.3c0,39.4,32.1,71.5,71.5,71.5c39.4,0,71.5-32.1,71.5-71.5
			c0-0.4,0-0.7,0-1.1c0.2-2.1-0.2-4.2-1.1-6.1l-57.3-116.1c7.7-1.1,15.4-3.1,22.9-6c0,0,13.4-5.1,23.4-8.9
			c5.7-2.1,11.6-3.2,17.6-3.2h0c16.1,0,39.8,0,69.9,0v254.9c0,6.4,5.2,11.6,11.6,11.6c6.4,0,11.6-5.2,11.6-11.6V116.2
			c30.1,0,53.8,0,69.9,0h0c6,0,12,1.1,17.6,3.2c10,3.8,23.4,8.9,23.4,8.9c7.5,2.8,15.1,4.8,22.9,6l-57.3,116.1
			c-0.9,1.9-1.3,4-1.1,6.1c0,0.4,0,0.7,0,1.1c0,39.4,32.1,71.5,71.5,71.5c39.4,0,71.5-32.1,71.5-71.5c0-0.8,0-1.5-0.1-2.3l0-0.1
			c0-0.4,0-0.7-0.1-1.1c0-0.2,0-0.4-0.1-0.5c0-0.2-0.1-0.4-0.1-0.6c-0.3-1.2-0.7-2.3-1.3-3.4l-56.6-114.7c10.4-1,20.8-3.6,30.7-7.7
			l29-11.9C487.7,112.9,490.6,106.1,488.1,100.2z M92.1,305.8c-23.4,0-43-16.7-47.4-38.8h94.8C135.1,289.1,115.5,305.8,92.1,305.8z
			 M133.4,243.8H50.9l41.2-83.5L133.4,243.8z M408.9,305.8c-23.4,0-43-16.7-47.4-38.8h94.8C451.8,289.1,432.3,305.8,408.9,305.8z
			 M450.1,243.8h-82.5l41.2-83.5L450.1,243.8z"/>
	</g>
</g>
</svg>
