<?xml version="1.0" encoding="utf-8"?>
<!-- Generator: Adobe Illustrator 22.0.0, SVG Export Plug-In . SVG Version: 6.00 Build 0)  -->
<svg version="1.1" id="图层_1" xmlns="http://www.w3.org/2000/svg" xmlns:xlink="http://www.w3.org/1999/xlink" x="0px" y="0px"
	 viewBox="0 0 500 500" style="enable-background:new 0 0 500 500;" xml:space="preserve">
<style type="text/css">
	.st0{fill:#1D8FE1;}
</style>
<g>
	<g>
		<path class="st0" d="M238.1,137.2c-9.9,0-17.9,8-17.9,17.9v119.2c0,9.9,8,17.9,17.9,17.9h115.6c9.9,0,17.9-8,17.9-17.9
			c0-9.9-8-17.9-17.9-17.9h-97.7V155.2C256.1,145.3,248,137.2,238.1,137.2z M404.2,52.9c-52.5-41-117.9-59.1-184-51
			C154,10,95,43.4,53.9,95.9c-6.1,7.8-4.7,19.1,3.1,25.2c7.8,6.1,19.1,4.7,25.2-3.1c35.1-45,85.7-73.6,142.3-80.5
			c56.7-6.9,112.6,8.6,157.6,43.7c92.8,72.5,109.3,207,36.8,299.8c-72.5,92.8-207,109.3-299.8,36.8
			c-63.3-49.4-93.3-129.1-78.4-208.1c1.8-9.7-4.6-19.1-14.3-21c-9.7-1.8-19.1,4.6-21,14.3C-12,295.3,23.1,388.4,97,446.1
			c44.3,34.6,97.7,52.9,153.1,52.9c10.3,0,20.6-0.6,30.9-1.9c66.2-8.1,125.2-41.5,166.2-94C531.9,294.6,512.6,137.6,404.2,52.9z"/>
	</g>
</g>
</svg>
