<?xml version="1.0" encoding="utf-8"?>
<!-- Generator: Adobe Illustrator 22.0.0, SVG Export Plug-In . SVG Version: 6.00 Build 0)  -->
<svg version="1.1" id="图层_1" xmlns="http://www.w3.org/2000/svg" xmlns:xlink="http://www.w3.org/1999/xlink" x="0px" y="0px"
	 viewBox="0 0 500 500" style="enable-background:new 0 0 500 500;" xml:space="preserve">
<style type="text/css">
	.st0{fill:#999999;}
</style>
<g>
	<g>
		<path class="st0" d="M487,171.8c-3.8-3.8-9.4-5.7-15.1-5.7c-7.5,0-13.2,3.8-18.8,9.4l-37.7,49c-15.1-9.4-30.2-18.8-47.1-24.5
			l24.5-54.7c5.7-11.3,0-26.4-11.3-32c-3.8-1.9-5.7-1.9-9.4-1.9c-9.4,0-17,5.7-20.7,13.2L324.9,185c-17-3.8-35.8-7.5-52.8-9.4v-64.1
			c0-13.2-11.3-24.5-22.6-24.5c-13.2,0-22.6,11.3-22.6,24.5v64.1c-18.8,1.9-35.8,3.8-54.7,9.4l-24.5-60.3
			c-3.8-9.4-13.2-15.1-20.7-15.1c-3.8,0-5.7,0-9.4,1.9c-11.3,5.7-17,18.8-13.2,32l22.6,54.7c-13.2,5.7-26.4,13.2-39.6,18.8L44,173.7
			c-3.8-3.8-11.3-7.5-17-7.5c-5.7,0-11.3,1.9-17,7.5c-9.4,9.4-9.4,24.5,0,33.9l35.8,37.7c-9.4,7.5-20.7,17-30.2,26.4
			c-5.7,5.7-7.5,15.1-5.7,22.6c-1.9,7.5,0,17,5.7,22.6c9.4,9.4,18.8,18.8,30.2,26.4l39.6,26.4c13.2,7.5,24.5,15.1,39.6,18.8
			l45.2,15.1c17,3.8,35.8,7.5,54.7,9.4h47.1c18.8-1.9,35.8-3.8,52.8-9.4l45.2-15.1c17-7.5,32-15.1,47.1-24.5l37.7-28.3
			c7.5-7.5,15.1-13.2,22.6-22.6c5.7-5.7,7.5-15.1,5.7-22.6c1.9-7.5,0-17-5.7-22.6c-7.5-7.5-15.1-15.1-22.6-22.6l35.8-47.1
			C500.2,196.3,498.3,181.2,487,171.8z M249.5,367.9c-67.9,0-133.8-26.4-184.7-71.6c50.9-47.1,115-71.6,184.7-71.6
			c67.9,0,133.8,26.4,184.7,71.6C383.3,343.4,317.4,367.9,249.5,367.9z M194.8,296.2c0,32,24.5,56.5,56.5,56.5s56.5-24.5,56.5-56.5
			s-24.5-56.5-56.5-56.5S194.8,264.2,194.8,296.2z"/>
	</g>
</g>
</svg>
