<?xml version="1.0" encoding="utf-8"?>
<!-- Generator: Adobe Illustrator 22.0.0, SVG Export Plug-In . SVG Version: 6.00 Build 0)  -->
<svg version="1.1" id="图层_1" xmlns="http://www.w3.org/2000/svg" xmlns:xlink="http://www.w3.org/1999/xlink" x="0px" y="0px"
	 viewBox="0 0 500 500" style="enable-background:new 0 0 500 500;" xml:space="preserve">
<style type="text/css">
	.st0{fill-rule:evenodd;clip-rule:evenodd;fill:#333333;}
</style>
<g>
	<g>
		<path class="st0" d="M250,485C120.2,485,15,379.8,15,250S120.2,15,250,15c20.8,0,37.6,16.8,37.6,37.6S270.8,90.2,250,90.2
			c-88.3,0-159.8,71.5-159.8,159.8S161.7,409.8,250,409.8S409.8,338.3,409.8,250c0-44.1-17.9-84.1-46.8-113l0,0
			c-7.1-6.8-11.5-16.4-11.5-27c0-20.8,16.8-37.6,37.6-37.6c10.6,0,20.2,4.4,27,11.5l0,0C458.7,126.4,485,185.1,485,250
			C485,379.8,379.8,485,250,485z"/>
	</g>
</g>
</svg>
