<?xml version="1.0" encoding="utf-8"?>
<!-- Generator: Adobe Illustrator 22.0.0, SVG Export Plug-In . SVG Version: 6.00 Build 0)  -->
<svg version="1.1" id="图层_1" xmlns="http://www.w3.org/2000/svg" xmlns:xlink="http://www.w3.org/1999/xlink" x="0px" y="0px"
	 viewBox="0 0 500 500" style="enable-background:new 0 0 500 500;" xml:space="preserve">
<style type="text/css">
	.st0{clip-path:url(#SVGID_2_);fill:#212121;}
	.st1{fill:#F4BB0B;}
</style>
<g>
	<g>
		<defs>
			<rect id="SVGID_1_" x="0.8" width="498.2" height="498.7"/>
		</defs>
		<clipPath id="SVGID_2_">
			<use xlink:href="#SVGID_1_"  style="overflow:visible;"/>
		</clipPath>
		<path class="st0" d="M0.8,249.2c0,137.5,111.4,248.9,248.9,248.9c137.5,0,248.9-111.4,248.9-248.9
			c0-137.5-111.4-248.9-248.9-248.9C112.2,0.3,0.8,111.8,0.8,249.2L0.8,249.2z M0.8,249.2"/>
	</g>
	<path class="st1" d="M249.7,200.4l48.8,48.8L249.7,298l-48.8-48.8L249.7,200.4z M360.7,249.2l-0.2,0.2l45.3,45.3l45.5-45.5
		l-45.8-45.8l-45.3,45.3L360.7,249.2z M360.7,249.2"/>
	<path class="st1" d="M171.2,216.7l78.5-78.5l79.7,79.7l45.3-45.3l-125-125L125.8,171.4L171.2,216.7z M329.6,280.3l-80,80
		l-79.3-79.3l-45.3,45.3l124.6,124.6l125.3-125.3L329.6,280.3z M138.6,249.2l1.7-1.7L95,202.2l-47,47l46.2,46.2l45.3-45.3
		L138.6,249.2z M138.6,249.2"/>
</g>
</svg>
