<?xml version="1.0" encoding="utf-8"?>
<!-- Generator: Adobe Illustrator 22.0.0, SVG Export Plug-In . SVG Version: 6.00 Build 0)  -->
<svg version="1.1" id="图层_1" xmlns="http://www.w3.org/2000/svg" xmlns:xlink="http://www.w3.org/1999/xlink" x="0px" y="0px"
	 viewBox="0 0 500 500" style="enable-background:new 0 0 500 500;" xml:space="preserve">
<style type="text/css">
	.st0{clip-path:url(#SVGID_1_);fill:#0B0E2C;}
	.st1{fill:#FFFFFF;}
</style>
<g>
	<g>
		<defs>
			<rect id="SVGID_3_" x="0.8" width="498.2" height="498.7"/>
		</defs>
		<clipPath id="SVGID_1_">
			<use xlink:href="#SVGID_3_"  style="overflow:visible;"/>
		</clipPath>
		<path class="st0" d="M0.8,249.2c0,137.5,111.4,248.9,248.9,248.9c137.5,0,248.9-111.4,248.9-248.9
			c0-137.5-111.4-248.9-248.9-248.9C112.2,0.3,0.8,111.8,0.8,249.2L0.8,249.2z M0.8,249.2"/>
	</g>
	<path class="st1" d="M240.2,93.4l-73.4,43.3l73.4,43.6l75.7-43.3L240.2,93.4z M145.4,164.8v87.6l75.9,42.3v-87.4L145.4,164.8z
		 M328.8,164.8v87.6l-75.9,42.3v-87.4L328.8,164.8z M353.7,269.4V357l-100.8,58v-87.6L353.7,269.4z M145.4,285.1v87.4l75.9,42.6
		v-87.6L145.4,285.1z M145.4,285.1"/>
</g>
</svg>
