<?xml version="1.0" encoding="utf-8"?>
<!-- Generator: Adobe Illustrator 22.0.0, SVG Export Plug-In . SVG Version: 6.00 Build 0)  -->
<svg version="1.1" id="图层_1" xmlns="http://www.w3.org/2000/svg" xmlns:xlink="http://www.w3.org/1999/xlink" x="0px" y="0px"
	 viewBox="0 0 500 500" style="enable-background:new 0 0 500 500;" xml:space="preserve">
<style type="text/css">
	.st0{clip-path:url(#SVGID_1_);fill:#1D2143;}
	.st1{clip-path:url(#SVGID_1_);fill:#28A7E1;}
</style>
<g>
	<g>
		<defs>
			<rect id="SVGID_3_" x="83.6" width="318.5" height="499"/>
		</defs>
		<clipPath id="SVGID_1_">
			<use xlink:href="#SVGID_3_"  style="overflow:visible;"/>
		</clipPath>
		<path class="st0" d="M235.4,0.2c1.5,46.7-8.4,93-28.8,135C175.8,183.1,83.8,240.8,83.8,334.1c-3.6,80.7,55,150.9,135,161.7
			c-28.1-30.4-41.5-71.5-36.8-112.6c4.6-74.6,72.1-111.7,104.7-184.1C328.7,102.7,235.4,0.2,235.4,0.2L235.4,0.2z M235.4,0.2"/>
		<path class="st1" d="M338.8,201.8c0,0,76.7,81.9,61.4,164.8c-10.6,52.2-46.3,95.7-95.4,116.3c-5,3.8-8.6,9.2-10.1,15.3
			c-28.6-19.4-45.9-51.4-46.6-85.9c0-68.7,46.6-122.8,61.4-145.5C321.1,246.1,330.9,224.3,338.8,201.8L338.8,201.8z M338.8,201.8"/>
	</g>
</g>
</svg>
