<?xml version="1.0" encoding="utf-8"?>
<!-- Generator: Adobe Illustrator 22.0.0, SVG Export Plug-In . SVG Version: 6.00 Build 0)  -->
<svg version="1.1" id="图层_1" xmlns="http://www.w3.org/2000/svg" xmlns:xlink="http://www.w3.org/1999/xlink" x="0px" y="0px"
	 viewBox="0 0 500 500" style="enable-background:new 0 0 500 500;" xml:space="preserve">
<style type="text/css">
	.st0{fill:#23BFA0;}
	.st1{fill:#FFFFFF;}
</style>
<g>
	<path class="st0" d="M3,249.4C3,386,113.8,496.8,250.4,496.8c136.6,0,247.4-110.8,247.4-247.4C497.8,112.8,387,2,250.4,2
		C113.8,2,3,112.8,3,249.4L3,249.4z M3,249.4"/>
	<path class="st1" d="M239.1,239.1l-90.9-67.8c-1.3-1.4-3.2-2.2-5.2-2.1c-1.9,0.1-3.7,1.1-4.9,2.6l-0.1,0.1c0,0,0,0.1-0.1,0.1
		c-0.2,0.2-0.3,0.5-0.4,0.7c-0.6,1.2-0.9,2.5-0.7,3.8v147.4c0,3.7,3,6.6,6.6,6.6c3.7,0,6.6-3,6.6-6.6V189.2l78.3,58.4v76.5
		c0,3.7,3,6.6,6.6,6.6c3.7,0,6.6-3,6.6-6.6v-78.7C242.1,243,241.1,240.6,239.1,239.1L239.1,239.1z M359.8,172.1c0,0,0-0.1-0.1-0.1
		l-0.1-0.1c-1.2-1.6-3-2.5-4.9-2.6c-1.9-0.1-3.8,0.6-5.2,2.1l-90.9,67.8c-1.9,1.5-2.9,3.9-2.6,6.3v78.8c0,3.7,3,6.6,6.6,6.6
		c3.7,0,6.6-3,6.6-6.6v-76.5l78.3-58.4v134.9c0,3.7,3,6.6,6.6,6.6c3.7,0,6.6-3,6.6-6.6V176.7C361.2,175.1,360.8,173.5,359.8,172.1
		L359.8,172.1z M359.8,172.1"/>
	<path class="st1" d="M249.5,78.9C155.3,78.9,79,155.2,79,249.4c0,94.2,76.4,170.5,170.5,170.5c94.2,0,170.5-76.3,170.5-170.5
		C420,155.2,343.7,78.9,249.5,78.9L249.5,78.9z M249.5,411.5c-89.5,0-162.1-72.6-162.1-162.1c0-89.5,72.6-162.1,162.1-162.1
		c89.5,0,162.1,72.6,162.1,162.1c0,43-17.1,84.2-47.5,114.6C333.7,394.4,292.5,411.5,249.5,411.5L249.5,411.5z M249.5,411.5"/>
</g>
</svg>
