<?xml version="1.0" encoding="utf-8"?>
<!-- Generator: Adobe Illustrator 22.0.0, SVG Export Plug-In . SVG Version: 6.00 Build 0)  -->
<svg version="1.1" id="图层_1" xmlns="http://www.w3.org/2000/svg" xmlns:xlink="http://www.w3.org/1999/xlink" x="0px" y="0px"
	 viewBox="0 0 500 500" style="enable-background:new 0 0 500 500;" xml:space="preserve">
<style type="text/css">
	.st0{fill:#000333;}
</style>
<g>
	<g>
		<path class="st0" d="M251.8,316.2V74.6l-110,177.8L251.8,316.2z M251.8,417.9v-87l-107.5-62.5L251.8,417.9z M255.6,316.2l110-63.8
			l-110-177.8V316.2z M256.9,417.9l108.8-149.6l-108.8,62.5V417.9z M480.3,152.7c-12.6-29.8-30.6-56.5-53.6-79.5
			c-22.9-22.9-49.7-41-79.5-53.6C316.5,6.6,283.7,0,250,0c-33.7,0-66.5,6.6-97.3,19.7c-29.8,12.6-56.5,30.6-79.5,53.6
			c-22.9,22.9-41,49.7-53.6,79.5C6.6,183.5,0,216.3,0,250c0,33.7,6.6,66.5,19.7,97.3c12.6,29.8,30.6,56.5,53.6,79.5
			c22.9,22.9,49.7,41,79.5,53.6c30.8,13,63.6,19.7,97.3,19.7c33.7,0,66.5-6.6,97.3-19.7c29.8-12.6,56.5-30.6,79.5-53.6
			c22.9-22.9,41-49.7,53.6-79.5c13-30.8,19.7-63.6,19.7-97.3C500,216.3,493.4,183.5,480.3,152.7z M250,480.4
			C122.9,480.4,19.6,377.1,19.6,250C19.6,122.9,122.9,19.6,250,19.6c127.1,0,230.4,103.3,230.4,230.4
			C480.4,377.1,377.1,480.4,250,480.4z"/>
	</g>
</g>
</svg>
