<?xml version="1.0" encoding="utf-8"?>
<!-- Generator: Adobe Illustrator 22.0.0, SVG Export Plug-In . SVG Version: 6.00 Build 0)  -->
<svg version="1.1" id="图层_1" xmlns="http://www.w3.org/2000/svg" xmlns:xlink="http://www.w3.org/1999/xlink" x="0px" y="0px"
	 viewBox="0 0 1527 173.3" style="enable-background:new 0 0 1527 173.3;" xml:space="preserve">
<style type="text/css">
	.st0{fill:#3499DB;}
	.st1{opacity:0.31;fill:#02253D;}
</style>
<g>
	<g>
		<g>
			<path class="st0" d="M242.5,74.2h-23c-0.7,0-1.2,0.5-1.2,1.2v12.3c0,0.7,0.5,1.2,1.2,1.2h20.6c1.5,0,2.8,1.2,2.8,2.8v13.1
				c0,1.5-1.2,2.8-2.8,2.8h-20.6c-0.7,0-1.2,0.5-1.2,1.2V139c0,1.5-1.2,2.8-2.8,2.8h-16.9c-1.5,0-2.8-1.2-2.8-2.8V58.3
				c0-1.5,1.2-2.8,2.8-2.8h43.8c1.5,0,2.8,1.2,2.8,2.8v13.1C245.3,73,244.1,74.2,242.5,74.2z"/>
			<path class="st0" d="M339.1,105.2c0.1,4.5-0.4,8.9-1.3,13.3c-1.3,5.7-4.5,10.9-9.4,15.6c-7,6.6-16.4,9.9-28.1,9.9
				c-11.9,0-21.2-3.4-27.9-10.1c-3.6-3.7-6.1-8.3-7.3-13.3c-1-5-1.5-10.2-1.4-15.3v-47c0-1.5,1.2-2.8,2.8-2.8l0,0h16.9
				c1.5,0,2.8,1.2,2.8,2.8l0,0v43.9c0,3.8,0.1,6.6,0.2,8.4c0.4,5.9,3.1,9.9,8,12.3c2.1,1,4.4,1.5,6.7,1.4c5.5,0,9.6-1.9,12.4-5.7
				c2.1-2.8,3.1-8.3,3.1-16.4V58.3c0-1.5,1.2-2.8,2.8-2.8l0,0h16.8c1.5,0,2.8,1.2,2.8,2.8l0,0L339.1,105.2z"/>
			<path class="st0" d="M422.2,113.2c0,14.6-6.4,24.1-19.2,28.5c-4.6,1.6-9.5,2.4-14.4,2.3c-9.9,0-19.6-2.9-27.9-8.4
				c-1.2-0.8-1.7-2.4-1-3.7l6.8-12.8c0.7-1.4,2.4-1.9,3.7-1.2c0.1,0.1,0.3,0.2,0.4,0.3c5.9,4.7,11.6,7,17.3,7c2.6,0.1,5.2-0.6,7.4-2
				c2.3-1.4,3.6-3.9,3.5-6.5c0-2.6-1.3-4.7-3.9-6.4c-1.9-1.3-5.2-2.6-9.8-3.9c-5.6-1.6-9.1-2.8-10.5-3.4c-2.1-0.9-4.1-2-5.8-3.4
				c-4.5-3.8-6.8-9.5-6.8-17.2c0-8,2.4-14.6,7.1-19.9c5.6-6.2,13-9.3,22.3-9.3c8.6,0,17,2,24.8,5.7c1.4,0.7,2,2.3,1.4,3.7
				c0,0,0,0.1-0.1,0.1L411.2,75c-0.7,1.4-2.4,1.9-3.8,1.2c-0.1,0-0.2-0.1-0.2-0.1c-3.6-2.5-7.9-3.9-12.3-4c-2.3,0-4.5,0.7-6.5,1.9
				c-2,1.1-3.2,3.3-3.2,5.6c0,2.3,1.4,4.2,4.2,5.9c1.3,0.8,5.1,2.1,11.4,3.9c7.9,2.3,13.6,5.6,17,9.9
				C420.8,102.9,422.2,107.5,422.2,113.2z"/>
			<rect x="441.5" y="55.5" class="st0" width="22.5" height="86.3"/>
			<path class="st0" d="M578.9,98.9c0.1,11.4-4.1,22.4-11.7,30.8c-8.9,10.1-20.9,15.1-36.1,15.1c-15.2,0-27.2-5-36-15.1
				c-7.6-8.4-11.8-19.5-11.7-30.8c0.1-5.6,1.1-11.2,3.2-16.5c1.9-5.3,4.8-10.2,8.4-14.4c8.9-10.1,20.9-15.1,36.1-15.1
				s27.2,5,36.1,15.1C574.9,76.5,579.1,87.5,578.9,98.9z M555.7,98.9c0.1-5.8-2-11.4-5.8-15.8c-8.8-10.3-24.3-11.5-34.6-2.7
				c-5.4,4.6-8.6,11.4-8.6,18.5c0,5.8,2,11.3,5.8,15.6c4.6,5.6,11.4,8.7,18.6,8.6c13.4,0.1,24.4-10.6,24.5-24
				C555.7,99,555.7,99,555.7,98.9z"/>
			<path class="st0" d="M681.7,141.8h-18.3c-0.9,0-1.7-0.4-2.2-1.1l-38.3-49c-0.4-0.5-1.2-0.6-1.7-0.2c-0.3,0.2-0.5,0.6-0.5,0.9
				v49.3H601c-1.5,0-2.8-1.2-2.8-2.8V58.3c0-1.5,1.2-2.8,2.8-2.8h18.3c0.9,0,1.7,0.4,2.2,1.1l38.3,49c0.4,0.5,1.2,0.6,1.7,0.2
				c0.3-0.2,0.5-0.6,0.5-1V58.3c0-1.5,1.2-2.8,2.8-2.8h16.9c1.5,0,2.8,1.2,2.8,2.8V139C684.5,140.5,683.2,141.8,681.7,141.8z"/>
			<path class="st0" d="M79.6,56.3c-26.7,40.9-43.1,97.7-49.5,117c-3.6-36.4,15.4-86,29.3-115.3C53,58.3,18.9,60.7,0,80.2
				c0,0,10.2-31.3,69.1-40.8l0.2-0.4C115.4-28.3,150,11.9,150,11.9c-21-3.5-39.3,7-54.9,24.1c7.6-0.3,56.8-0.9,71,38
				C166.1,74,137.6,53.6,79.6,56.3z M112.9,103.2c-11.8,0-21.4,9.6-21.4,21.4s9.6,21.4,21.4,21.4s21.4-9.6,21.4-21.4l0,0
				C134.3,112.7,124.7,103.2,112.9,103.2z"/>
		</g>
	</g>
</g>
<g>
	<g>
		<g>
			<path class="st0" d="M809.7,57h-29.3v84.9h29.2c13.3,0,24.2-4,32.7-11.9c8.4-8,12.7-18.5,12.7-31.6C855,70.8,839.9,57,809.7,57z
				 M828.6,119.5c-4.9,5.1-11.6,7.7-20.2,7.7h-9.9V71.8h9.8c8.2,0,14.8,2.4,20,7.1c5.1,4.7,7.7,11.3,7.7,19.8
				C835.9,107.4,833.5,114.3,828.6,119.5z M881.3,68.4c-8.4,8.5-12.6,19.5-12.6,32.9c0,12.8,3.8,23,11.3,30.6
				c7.5,7.7,17.7,11.5,30.5,11.5c9.9,0,18-1.5,24.2-4.6v-16.6c-6.2,3.7-13.1,5.5-20.7,5.5c-8,0-14.4-2.5-19.1-7.6
				c-4.7-5.1-7.1-11.8-7.1-20.1c0-8.6,2.5-15.5,7.5-20.8c5-5.3,11.6-8,19.9-8c7.3,0,13.8,1.7,19.5,5V58.8
				c-5.6-2.2-12.5-3.2-20.8-3.2C900.5,55.6,889.6,59.9,881.3,68.4z M989.9,103.8v-0.2c5.9-1.7,10.6-4.6,14-8.7s5.1-9.1,5.1-14.9
				c0-15.4-10.1-23-30.3-23h-29.8v84.9H967V109h5.5c2,0,3.8,0.7,5.6,2s4,4.3,6.7,8.8l13.3,22.1h20.8l-16-25.2
				C998.1,109.5,993.8,105.2,989.9,103.8z M975.8,95.2h-8.9V70.8h9.2c9.2,0,13.8,3.8,13.8,11.5c0,3.7-1.3,6.8-3.9,9.2
				C983.5,94,980,95.2,975.8,95.2z M1075.3,108.2c-1.2,3.4-2.4,7.4-3.5,12.1h-0.4c-0.5-3.7-1.6-7.7-3.1-12L1050,57h-26.3v84.9h16.3
				v-48c0-7.2-0.2-14.3-0.7-21.4h0.5c1.3,6.3,2.2,10.1,2.7,11.5l21.2,58h14.4l20.9-58.6c0.7-1.8,1.5-5.5,2.6-10.9h0.4
				c-0.5,7.2-0.7,13.2-0.7,17.9v51.5h17.9V57h-25.6L1075.3,108.2z M1265,57l-12.3,57.7c-0.7,3-1.1,6.1-1.3,9.3h-0.3
				c-0.3-3.7-0.8-6.7-1.4-9l-14.4-58h-19.2l-15.8,57.3c-1,3.5-1.5,6.8-1.7,9.8h-0.4c-0.2-3.8-0.6-7-1.2-9.5L1184.5,57h-19.8
				l22.6,84.9h20.9l14.8-55.4c0.7-2.4,1.2-5.6,1.5-9.4h0.2c0.1,3.3,0.6,6.4,1.4,9.4l14.5,55.4h20.1l22.6-84.9
				C1283.3,57,1265,57,1265,57z M1308.2,79.8c-3.3,0-7.2,0.5-11.8,1.4c-4.6,1-8.3,2.2-11,3.7v13.7c6.4-4.4,13.2-6.6,20.5-6.6
				s11,3.5,11,10.6l-16.7,2.2c-13.9,1.9-20.8,8.7-20.8,20.3c0,5.6,1.7,10.1,5.2,13.4c3.5,3.3,8.1,4.9,13.8,4.9c8,0,14-3.4,18.1-10.3
				h0.2v8.8h16.8v-36.6C1333.6,88.3,1325.1,79.8,1308.2,79.8z M1316.9,117.3c0,3.8-1.2,7-3.5,9.5c-2.3,2.6-5.3,3.8-8.9,3.8
				c-2.6,0-4.7-0.7-6.3-2.1c-1.6-1.4-2.3-3.2-2.3-5.5c0-4.9,3.2-7.8,9.6-8.7l11.5-1.5L1316.9,117.3L1316.9,117.3z M1339.8,141.9
				h17.7V52.2h-17.7V141.9z M1377.3,141.9h17.7V52.2h-17.7V141.9z M1441.4,79.8c-8.6,0-15.8,3-21.5,9.1c-5.7,6-8.6,13.9-8.6,23.6
				s2.7,17.3,8,22.8c5.4,5.4,12.9,8.2,22.5,8.2c9,0,16.2-1.6,21.7-4.7v-13c-5.1,3.3-11,4.9-17.7,4.9c-10.7,0-16.4-4.7-17-14.1h39.9
				v-7.5c0-9.1-2.4-16.3-7.3-21.5C1456.7,82.4,1450,79.8,1441.4,79.8z M1428.9,105.5c0.6-4.1,2-7.4,4.4-9.9c2.3-2.5,5-3.7,8.1-3.7
				c7.3,0,11,4.5,11,13.6H1428.9z M1525.5,94.5V81.3h-13.8V62.9l-17.6,5v13.3h-10v13.2h10V123c0,13.5,6.4,20.3,19.3,20.3
				c5.4,0,9.4-0.7,12.1-2.2V128c-2.1,1.2-4.2,1.8-6.1,1.8c-5.1,0-7.7-3.2-7.7-9.7V94.5H1525.5z"/>
		</g>
	</g>
</g>
<path class="st1" d="M725.9,168.1H720V27.3h5.9V168.1z"/>
</svg>
