<?xml version="1.0" encoding="utf-8"?>
<!-- Generator: Adobe Illustrator 22.0.0, SVG Export Plug-In . SVG Version: 6.00 Build 0)  -->
<svg version="1.1" id="图层_1" xmlns="http://www.w3.org/2000/svg" xmlns:xlink="http://www.w3.org/1999/xlink" x="0px" y="0px"
	 viewBox="0 0 120 135.5" style="enable-background:new 0 0 120 135.5;" xml:space="preserve">
<style type="text/css">
	.st0{clip-path:url(#SVGID_2_);fill:#100C0D;}
	.st1{clip-path:url(#SVGID_4_);fill:#FFAA00;}
	.st2{clip-path:url(#SVGID_6_);fill:#FFAA00;}
	.st3{clip-path:url(#SVGID_8_);enable-background:new    ;}
	.st4{clip-path:url(#SVGID_10_);}
	.st5{clip-path:url(#SVGID_12_);}
	.st6{clip-path:url(#SVGID_14_);fill:#2762E0;}
	.st7{clip-path:url(#SVGID_16_);fill:none;stroke:#100C0D;stroke-width:16;stroke-miterlimit:10;}
	.st8{clip-path:url(#SVGID_18_);enable-background:new    ;}
	.st9{clip-path:url(#SVGID_20_);}
	.st10{clip-path:url(#SVGID_22_);}
	.st11{clip-path:url(#SVGID_24_);fill:#FFFFFF;}
	.st12{clip-path:url(#SVGID_26_);fill:none;stroke:#100C0D;stroke-width:16;stroke-miterlimit:10;}
	.st13{clip-path:url(#SVGID_28_);enable-background:new    ;}
	.st14{clip-path:url(#SVGID_30_);}
	.st15{clip-path:url(#SVGID_32_);}
	.st16{clip-path:url(#SVGID_34_);fill:#FFFFFF;}
	.st17{clip-path:url(#SVGID_36_);fill:none;stroke:#100C0D;stroke-width:16;stroke-miterlimit:10;}
	.st18{clip-path:url(#SVGID_38_);enable-background:new    ;}
	.st19{clip-path:url(#SVGID_40_);}
	.st20{clip-path:url(#SVGID_42_);}
	.st21{clip-path:url(#SVGID_44_);fill:#FFFFFF;}
	.st22{clip-path:url(#SVGID_46_);fill:none;stroke:#100C0D;stroke-width:22;stroke-miterlimit:10;}
	.st23{clip-path:url(#SVGID_48_);enable-background:new    ;}
	.st24{clip-path:url(#SVGID_50_);}
	.st25{clip-path:url(#SVGID_52_);}
	.st26{clip-path:url(#SVGID_54_);fill:#FFFFFF;}
	.st27{clip-path:url(#SVGID_56_);fill:none;stroke:#100C0D;stroke-width:22;stroke-miterlimit:10;}
	.st28{opacity:0.9;clip-path:url(#SVGID_58_);fill:#100C0D;}
	.st29{opacity:0.9;clip-path:url(#SVGID_60_);fill:#100C0D;}
	.st30{clip-path:url(#SVGID_62_);enable-background:new    ;}
	.st31{clip-path:url(#SVGID_64_);}
	.st32{clip-path:url(#SVGID_66_);}
	.st33{clip-path:url(#SVGID_68_);fill:#FFAA00;}
	.st34{clip-path:url(#SVGID_70_);fill:none;stroke:#100C0D;stroke-width:16;stroke-miterlimit:10;}
	.st35{opacity:0.1729;clip-path:url(#SVGID_72_);fill:#FFFFFF;}
</style>
<g>
	<defs>
		<rect id="SVGID_1_" x="9.9" y="124" width="100.1" height="8"/>
	</defs>
	<clipPath id="SVGID_2_">
		<use xlink:href="#SVGID_1_"  style="overflow:visible;"/>
	</clipPath>
	<rect x="4.9" y="119" class="st0" width="110.1" height="18"/>
</g>
<g>
	<defs>
		<rect id="SVGID_3_" x="40" y="119.5" width="16" height="16"/>
	</defs>
	<clipPath id="SVGID_4_">
		<use xlink:href="#SVGID_3_"  style="overflow:visible;"/>
	</clipPath>
	<rect x="35" y="114.5" class="st1" width="26" height="26"/>
</g>
<g>
	<defs>
		<rect id="SVGID_5_" x="64" y="119.5" width="16" height="16"/>
	</defs>
	<clipPath id="SVGID_6_">
		<use xlink:href="#SVGID_5_"  style="overflow:visible;"/>
	</clipPath>
	<rect x="59" y="114.5" class="st2" width="26" height="26"/>
</g>
<g>
	<defs>
		<path id="SVGID_7_" d="M10,0c14.4,0,27,7.6,34,19c5-1.7,10.4-2.6,16-2.6c5.6,0,11,0.9,16,2.6C83,7.6,95.6,0,110,0l0,19h0v55
			c0,27.6-22.4,50-50,50s-50-22.4-50-50V0z"/>
	</defs>
	<clipPath id="SVGID_8_">
		<use xlink:href="#SVGID_7_"  style="overflow:visible;"/>
	</clipPath>
	<g class="st3">
		<g>
			<defs>
				<rect id="SVGID_9_" x="-70" y="-80" width="260" height="284"/>
			</defs>
			<clipPath id="SVGID_10_">
				<use xlink:href="#SVGID_9_"  style="overflow:visible;"/>
			</clipPath>
			<g class="st4">
				<defs>
					<path id="SVGID_11_" d="M10,0c14.4,0,27,7.6,34,19c5-1.7,10.4-2.6,16-2.6c5.6,0,11,0.9,16,2.6C83,7.6,95.6,0,110,0l0,19h0v55
						c0,27.6-22.4,50-50,50s-50-22.4-50-50V0z"/>
				</defs>
				<clipPath id="SVGID_12_">
					<use xlink:href="#SVGID_11_"  style="overflow:visible;"/>
				</clipPath>
				<g class="st5">
					<defs>
						<rect id="SVGID_13_" x="10" width="100" height="124"/>
					</defs>
					<clipPath id="SVGID_14_">
						<use xlink:href="#SVGID_13_"  style="overflow:visible;"/>
					</clipPath>
					<path class="st6" d="M10,0c14.4,0,27,7.6,34,19c5-1.7,10.4-2.6,16-2.6c5.6,0,11,0.9,16,2.6C83,7.6,95.6,0,110,0l0,19h0v55
						c0,27.6-22.4,50-50,50s-50-22.4-50-50V0z"/>
				</g>
			</g>
			<g class="st4">
				<defs>
					<rect id="SVGID_15_" x="10" width="100" height="124"/>
				</defs>
				<clipPath id="SVGID_16_">
					<use xlink:href="#SVGID_15_"  style="overflow:visible;"/>
				</clipPath>
				<path class="st7" d="M10,0c14.4,0,27,7.6,34,19c5-1.7,10.4-2.6,16-2.6s11,0.9,16,2.6C83,7.6,95.6,0,110,0l0,19h0v55
					c0,27.6-22.4,50-50,50s-50-22.4-50-50V0z"/>
			</g>
		</g>
	</g>
</g>
<g>
	<defs>
		<circle id="SVGID_17_" cx="90" cy="55" r="30"/>
	</defs>
	<clipPath id="SVGID_18_">
		<use xlink:href="#SVGID_17_"  style="overflow:visible;"/>
	</clipPath>
	<g class="st8">
		<g>
			<defs>
				<rect id="SVGID_19_" x="-20" y="-55" width="220" height="220"/>
			</defs>
			<clipPath id="SVGID_20_">
				<use xlink:href="#SVGID_19_"  style="overflow:visible;"/>
			</clipPath>
			<g class="st9">
				<defs>
					<circle id="SVGID_21_" cx="90" cy="55" r="30"/>
				</defs>
				<clipPath id="SVGID_22_">
					<use xlink:href="#SVGID_21_"  style="overflow:visible;"/>
				</clipPath>
				<g class="st10">
					<defs>
						<rect id="SVGID_23_" x="60" y="25" width="60" height="60"/>
					</defs>
					<clipPath id="SVGID_24_">
						<use xlink:href="#SVGID_23_"  style="overflow:visible;"/>
					</clipPath>
					<circle class="st11" cx="90" cy="55" r="30"/>
				</g>
			</g>
			<g class="st9">
				<defs>
					<rect id="SVGID_25_" x="60" y="25" width="60" height="60"/>
				</defs>
				<clipPath id="SVGID_26_">
					<use xlink:href="#SVGID_25_"  style="overflow:visible;"/>
				</clipPath>
				<circle class="st12" cx="90" cy="55" r="30"/>
			</g>
		</g>
	</g>
</g>
<g>
	<defs>
		<circle id="SVGID_27_" cx="30" cy="55" r="30"/>
	</defs>
	<clipPath id="SVGID_28_">
		<use xlink:href="#SVGID_27_"  style="overflow:visible;"/>
	</clipPath>
	<g class="st13">
		<g>
			<defs>
				<rect id="SVGID_29_" x="-80" y="-55" width="220" height="220"/>
			</defs>
			<clipPath id="SVGID_30_">
				<use xlink:href="#SVGID_29_"  style="overflow:visible;"/>
			</clipPath>
			<g class="st14">
				<defs>
					<circle id="SVGID_31_" cx="30" cy="55" r="30"/>
				</defs>
				<clipPath id="SVGID_32_">
					<use xlink:href="#SVGID_31_"  style="overflow:visible;"/>
				</clipPath>
				<g class="st15">
					<defs>
						<rect id="SVGID_33_" y="25" width="60" height="60"/>
					</defs>
					<clipPath id="SVGID_34_">
						<use xlink:href="#SVGID_33_"  style="overflow:visible;"/>
					</clipPath>
					<circle class="st16" cx="30" cy="55" r="30"/>
				</g>
			</g>
			<g class="st14">
				<defs>
					<rect id="SVGID_35_" y="25" width="60" height="60"/>
				</defs>
				<clipPath id="SVGID_36_">
					<use xlink:href="#SVGID_35_"  style="overflow:visible;"/>
				</clipPath>
				<circle class="st17" cx="30" cy="55" r="30"/>
			</g>
		</g>
	</g>
</g>
<g>
	<defs>
		<path id="SVGID_37_" d="M90,51c2.2,0,4,1.8,4,4c0,0,0,0,0,0.1c-0.5-0.7-1.3-1.1-2.3-1.1c-1.6,0-2.8,1.3-2.8,2.8
			c0,0.9,0.4,1.7,1.1,2.3L90,59c-2.2,0-4-1.8-4-4c0-0.4,0.1-0.8,0.2-1.2c0.3,0.2,0.6,0.4,1,0.4c0.9,0,1.6-0.7,1.6-1.6
			c0-0.5-0.2-0.9-0.5-1.2C88.8,51.1,89.4,51,90,51z"/>
	</defs>
	<clipPath id="SVGID_38_">
		<use xlink:href="#SVGID_37_"  style="overflow:visible;"/>
	</clipPath>
	<g class="st18">
		<g>
			<defs>
				<rect id="SVGID_39_" x="-24" y="-59" width="228" height="228"/>
			</defs>
			<clipPath id="SVGID_40_">
				<use xlink:href="#SVGID_39_"  style="overflow:visible;"/>
			</clipPath>
			<g class="st19">
				<defs>
					<path id="SVGID_41_" d="M90,51c2.2,0,4,1.8,4,4c0,0,0,0,0,0.1c-0.5-0.7-1.3-1.1-2.3-1.1c-1.6,0-2.8,1.3-2.8,2.8
						c0,0.9,0.4,1.7,1.1,2.3L90,59c-2.2,0-4-1.8-4-4c0-0.4,0.1-0.8,0.2-1.2c0.3,0.2,0.6,0.4,1,0.4c0.9,0,1.6-0.7,1.6-1.6
						c0-0.5-0.2-0.9-0.5-1.2C88.8,51.1,89.4,51,90,51z"/>
				</defs>
				<clipPath id="SVGID_42_">
					<use xlink:href="#SVGID_41_"  style="overflow:visible;"/>
				</clipPath>
				<g class="st20">
					<defs>
						<rect id="SVGID_43_" x="86" y="51" width="8" height="8"/>
					</defs>
					<clipPath id="SVGID_44_">
						<use xlink:href="#SVGID_43_"  style="overflow:visible;"/>
					</clipPath>
					<path class="st21" d="M90,51c2.2,0,4,1.8,4,4c0,0,0,0,0,0.1c-0.5-0.7-1.3-1.1-2.3-1.1c-1.6,0-2.8,1.3-2.8,2.8
						c0,0.9,0.4,1.7,1.1,2.3L90,59c-2.2,0-4-1.8-4-4c0-0.4,0.1-0.8,0.2-1.2c0.3,0.2,0.6,0.4,1,0.4c0.9,0,1.6-0.7,1.6-1.6
						c0-0.5-0.2-0.9-0.5-1.2C88.8,51.1,89.4,51,90,51z"/>
				</g>
			</g>
			<g class="st19">
				<defs>
					<rect id="SVGID_45_" x="86" y="51" width="8" height="8"/>
				</defs>
				<clipPath id="SVGID_46_">
					<use xlink:href="#SVGID_45_"  style="overflow:visible;"/>
				</clipPath>
				<path class="st22" d="M90,51c2.2,0,4,1.8,4,4c0,0,0,0,0,0.1c-0.5-0.7-1.3-1.1-2.3-1.1c-1.6,0-2.8,1.3-2.8,2.8
					c0,0.9,0.4,1.7,1.1,2.3L90,59c-2.2,0-4-1.8-4-4c0-0.4,0.1-0.8,0.2-1.2c0.3,0.2,0.6,0.4,1,0.4c0.9,0,1.6-0.7,1.6-1.6
					c0-0.5-0.2-0.9-0.5-1.2C88.8,51.1,89.4,51,90,51z"/>
			</g>
		</g>
	</g>
</g>
<g>
	<defs>
		<path id="SVGID_47_" d="M30,51c2.2,0,4,1.8,4,4c0,0,0,0,0,0.1c-0.5-0.7-1.3-1.1-2.3-1.1c-1.6,0-2.8,1.3-2.8,2.8
			c0,0.9,0.4,1.7,1.1,2.3L30,59c-2.2,0-4-1.8-4-4c0-0.4,0.1-0.8,0.2-1.2c0.3,0.2,0.6,0.4,1,0.4c0.9,0,1.6-0.7,1.6-1.6
			c0-0.5-0.2-0.9-0.5-1.2C28.8,51.1,29.4,51,30,51z"/>
	</defs>
	<clipPath id="SVGID_48_">
		<use xlink:href="#SVGID_47_"  style="overflow:visible;"/>
	</clipPath>
	<g class="st23">
		<g>
			<defs>
				<rect id="SVGID_49_" x="-84" y="-59" width="228" height="228"/>
			</defs>
			<clipPath id="SVGID_50_">
				<use xlink:href="#SVGID_49_"  style="overflow:visible;"/>
			</clipPath>
			<g class="st24">
				<defs>
					<path id="SVGID_51_" d="M30,51c2.2,0,4,1.8,4,4c0,0,0,0,0,0.1c-0.5-0.7-1.3-1.1-2.3-1.1c-1.6,0-2.8,1.3-2.8,2.8
						c0,0.9,0.4,1.7,1.1,2.3L30,59c-2.2,0-4-1.8-4-4c0-0.4,0.1-0.8,0.2-1.2c0.3,0.2,0.6,0.4,1,0.4c0.9,0,1.6-0.7,1.6-1.6
						c0-0.5-0.2-0.9-0.5-1.2C28.8,51.1,29.4,51,30,51z"/>
				</defs>
				<clipPath id="SVGID_52_">
					<use xlink:href="#SVGID_51_"  style="overflow:visible;"/>
				</clipPath>
				<g class="st25">
					<defs>
						<rect id="SVGID_53_" x="26" y="51" width="8" height="8"/>
					</defs>
					<clipPath id="SVGID_54_">
						<use xlink:href="#SVGID_53_"  style="overflow:visible;"/>
					</clipPath>
					<path class="st26" d="M30,51c2.2,0,4,1.8,4,4c0,0,0,0,0,0.1c-0.5-0.7-1.3-1.1-2.3-1.1c-1.6,0-2.8,1.3-2.8,2.8
						c0,0.9,0.4,1.7,1.1,2.3L30,59c-2.2,0-4-1.8-4-4c0-0.4,0.1-0.8,0.2-1.2c0.3,0.2,0.6,0.4,1,0.4c0.9,0,1.6-0.7,1.6-1.6
						c0-0.5-0.2-0.9-0.5-1.2C28.8,51.1,29.4,51,30,51z"/>
				</g>
			</g>
			<g class="st24">
				<defs>
					<rect id="SVGID_55_" x="26" y="51" width="8" height="8"/>
				</defs>
				<clipPath id="SVGID_56_">
					<use xlink:href="#SVGID_55_"  style="overflow:visible;"/>
				</clipPath>
				<path class="st27" d="M30,51c2.2,0,4,1.8,4,4c0,0,0,0,0,0.1c-0.5-0.7-1.3-1.1-2.3-1.1c-1.6,0-2.8,1.3-2.8,2.8
					c0,0.9,0.4,1.7,1.1,2.3L30,59c-2.2,0-4-1.8-4-4c0-0.4,0.1-0.8,0.2-1.2c0.3,0.2,0.6,0.4,1,0.4c0.9,0,1.6-0.7,1.6-1.6
					c0-0.5-0.2-0.9-0.5-1.2C28.8,51.1,29.4,51,30,51z"/>
			</g>
		</g>
	</g>
</g>
<g>
	<defs>
		<circle id="SVGID_57_" cx="30" cy="55" r="4"/>
	</defs>
	<clipPath id="SVGID_58_">
		<use xlink:href="#SVGID_57_"  style="overflow:visible;"/>
	</clipPath>
	<rect x="21" y="46" class="st28" width="18" height="18"/>
</g>
<g>
	<defs>
		<circle id="SVGID_59_" cx="90" cy="55" r="4"/>
	</defs>
	<clipPath id="SVGID_60_">
		<use xlink:href="#SVGID_59_"  style="overflow:visible;"/>
	</clipPath>
	<rect x="81" y="46" class="st29" width="18" height="18"/>
</g>
<g>
	<defs>
		<polygon id="SVGID_61_" points="38.7,80.6 60,51.5 81.3,80.6 60,99.9 		"/>
	</defs>
	<clipPath id="SVGID_62_">
		<use xlink:href="#SVGID_61_"  style="overflow:visible;"/>
	</clipPath>
	<g class="st30">
		<g>
			<defs>
				<rect id="SVGID_63_" x="-75" y="51" width="270" height="49"/>
			</defs>
			<clipPath id="SVGID_64_">
				<use xlink:href="#SVGID_63_"  style="overflow:visible;"/>
			</clipPath>
			<g class="st31">
				<defs>
					<polygon id="SVGID_65_" points="38.7,80.6 60,51.5 81.3,80.6 60,99.9 					"/>
				</defs>
				<clipPath id="SVGID_66_">
					<use xlink:href="#SVGID_65_"  style="overflow:visible;"/>
				</clipPath>
				<g class="st32">
					<defs>
						<rect id="SVGID_67_" x="38" y="51" width="44" height="49"/>
					</defs>
					<clipPath id="SVGID_68_">
						<use xlink:href="#SVGID_67_"  style="overflow:visible;"/>
					</clipPath>
					<polygon class="st33" points="38.7,80.6 60,51.5 81.3,80.6 60,99.9 					"/>
				</g>
			</g>
			<g class="st31">
				<defs>
					<rect id="SVGID_69_" x="38" y="51" width="44" height="49"/>
				</defs>
				<clipPath id="SVGID_70_">
					<use xlink:href="#SVGID_69_"  style="overflow:visible;"/>
				</clipPath>
				<polygon class="st34" points="38.7,80.6 60,51.5 81.3,80.6 60,99.9 				"/>
			</g>
		</g>
	</g>
</g>
<g>
	<defs>
		<polygon id="SVGID_71_" points="60,65 70.6,79.5 60,89 		"/>
	</defs>
	<clipPath id="SVGID_72_">
		<use xlink:href="#SVGID_71_"  style="overflow:visible;"/>
	</clipPath>
	<rect x="55" y="60" class="st35" width="20.6" height="33.9"/>
</g>
</svg>
